<svg width="622" height="711" viewBox="0 0 622 711" fill="none" xmlns="http://www.w3.org/2000/svg">
<g filter="url(#filter0_d_1_521)">
<rect x="60" y="30" width="502" height="441" rx="3" fill="#161629"/>
<rect x="60.5" y="30.5" width="501" height="440" rx="2.5" stroke="white" stroke-opacity="0.1"/>
</g>
<path d="M163.652 536H160.632V524.24H156.752V521.72H167.532V524.24H163.652V536ZM172.474 523.9C172.474 524.433 172.454 524.947 172.414 525.44C172.387 525.933 172.36 526.28 172.334 526.48H172.494C172.734 526.107 173.014 525.807 173.334 525.58C173.654 525.34 174.007 525.167 174.394 525.06C174.794 524.94 175.214 524.88 175.654 524.88C176.44 524.88 177.127 525.02 177.714 525.3C178.3 525.58 178.754 526.013 179.074 526.6C179.407 527.187 179.574 527.947 179.574 528.88V536H176.594V529.62C176.594 528.833 176.447 528.247 176.154 527.86C175.874 527.46 175.434 527.26 174.834 527.26C174.234 527.26 173.76 527.4 173.414 527.68C173.08 527.96 172.84 528.367 172.694 528.9C172.547 529.433 172.474 530.087 172.474 530.86V536H169.494V520.8H172.474V523.9ZM187.138 524.88C188.151 524.88 189.018 525.073 189.738 525.46C190.471 525.847 191.038 526.407 191.438 527.14C191.838 527.873 192.038 528.773 192.038 529.84V531.28H184.998C185.025 532.12 185.271 532.78 185.738 533.26C186.218 533.74 186.878 533.98 187.718 533.98C188.425 533.98 189.065 533.913 189.638 533.78C190.211 533.633 190.805 533.413 191.418 533.12V535.42C190.885 535.687 190.318 535.88 189.718 536C189.131 536.133 188.418 536.2 187.578 536.2C186.485 536.2 185.518 536 184.678 535.6C183.838 535.187 183.178 534.567 182.698 533.74C182.218 532.913 181.978 531.873 181.978 530.62C181.978 529.34 182.191 528.28 182.618 527.44C183.058 526.587 183.665 525.947 184.438 525.52C185.211 525.093 186.111 524.88 187.138 524.88ZM187.158 527C186.585 527 186.105 527.187 185.718 527.56C185.345 527.933 185.125 528.513 185.058 529.3H189.238C189.238 528.86 189.158 528.467 188.998 528.12C188.851 527.773 188.625 527.5 188.318 527.3C188.011 527.1 187.625 527 187.158 527ZM211.73 528.72C211.73 530.32 211.423 531.66 210.81 532.74C210.197 533.82 209.303 534.633 208.13 535.18C206.97 535.727 205.57 536 203.93 536H199.89V521.72H204.37C205.863 521.72 207.157 521.987 208.25 522.52C209.357 523.053 210.21 523.84 210.81 524.88C211.423 525.907 211.73 527.187 211.73 528.72ZM208.59 528.8C208.59 527.747 208.437 526.88 208.13 526.2C207.823 525.52 207.363 525.02 206.75 524.7C206.15 524.367 205.41 524.2 204.53 524.2H202.91V533.5H204.21C205.69 533.5 206.79 533.107 207.51 532.32C208.23 531.533 208.59 530.36 208.59 528.8ZM218.955 524.88C219.968 524.88 220.835 525.073 221.555 525.46C222.288 525.847 222.855 526.407 223.255 527.14C223.655 527.873 223.855 528.773 223.855 529.84V531.28H216.815C216.841 532.12 217.088 532.78 217.555 533.26C218.035 533.74 218.695 533.98 219.535 533.98C220.241 533.98 220.881 533.913 221.455 533.78C222.028 533.633 222.621 533.413 223.235 533.12V535.42C222.701 535.687 222.135 535.88 221.535 536C220.948 536.133 220.235 536.2 219.395 536.2C218.301 536.2 217.335 536 216.495 535.6C215.655 535.187 214.995 534.567 214.515 533.74C214.035 532.913 213.795 531.873 213.795 530.62C213.795 529.34 214.008 528.28 214.435 527.44C214.875 526.587 215.481 525.947 216.255 525.52C217.028 525.093 217.928 524.88 218.955 524.88ZM218.975 527C218.401 527 217.921 527.187 217.535 527.56C217.161 527.933 216.941 528.513 216.875 529.3H221.055C221.055 528.86 220.975 528.467 220.815 528.12C220.668 527.773 220.441 527.5 220.135 527.3C219.828 527.1 219.441 527 218.975 527ZM233.891 532.76C233.891 533.493 233.718 534.12 233.371 534.64C233.024 535.147 232.504 535.533 231.811 535.8C231.118 536.067 230.258 536.2 229.231 536.2C228.471 536.2 227.818 536.147 227.271 536.04C226.724 535.947 226.178 535.787 225.631 535.56V533.1C226.218 533.367 226.851 533.587 227.531 533.76C228.211 533.933 228.811 534.02 229.331 534.02C229.918 534.02 230.331 533.933 230.571 533.76C230.824 533.587 230.951 533.36 230.951 533.08C230.951 532.893 230.898 532.727 230.791 532.58C230.698 532.433 230.484 532.267 230.151 532.08C229.818 531.893 229.298 531.653 228.591 531.36C227.911 531.067 227.351 530.78 226.911 530.5C226.471 530.207 226.144 529.86 225.931 529.46C225.718 529.047 225.611 528.533 225.611 527.92C225.611 526.907 226.004 526.147 226.791 525.64C227.578 525.133 228.624 524.88 229.931 524.88C230.611 524.88 231.258 524.947 231.871 525.08C232.484 525.213 233.118 525.433 233.771 525.74L232.871 527.88C232.511 527.72 232.164 527.58 231.831 527.46C231.498 527.34 231.171 527.247 230.851 527.18C230.544 527.113 230.224 527.08 229.891 527.08C229.451 527.08 229.118 527.14 228.891 527.26C228.678 527.38 228.571 527.56 228.571 527.8C228.571 527.973 228.624 528.133 228.731 528.28C228.851 528.413 229.071 528.56 229.391 528.72C229.724 528.88 230.211 529.093 230.851 529.36C231.478 529.613 232.018 529.88 232.471 530.16C232.924 530.427 233.271 530.767 233.511 531.18C233.764 531.58 233.891 532.107 233.891 532.76ZM239.192 527.6C239.192 528.013 239.172 528.427 239.132 528.84C239.106 529.24 239.072 529.647 239.032 530.06H239.072C239.206 529.873 239.339 529.687 239.472 529.5C239.619 529.313 239.766 529.127 239.912 528.94C240.059 528.753 240.212 528.573 240.372 528.4L243.432 525.08H246.792L242.452 529.82L247.052 536H243.612L240.472 531.58L239.192 532.6V536H236.212V520.8H239.192V527.6ZM253.215 533.82C253.548 533.82 253.868 533.787 254.175 533.72C254.481 533.653 254.788 533.573 255.095 533.48V535.7C254.775 535.833 254.375 535.947 253.895 536.04C253.428 536.147 252.915 536.2 252.355 536.2C251.701 536.2 251.115 536.093 250.595 535.88C250.088 535.667 249.681 535.3 249.375 534.78C249.081 534.247 248.935 533.513 248.935 532.58V527.32H247.515V526.06L249.155 525.06L250.015 522.76H251.915V525.08H254.975V527.32H251.915V532.58C251.915 532.993 252.035 533.307 252.275 533.52C252.515 533.72 252.828 533.82 253.215 533.82ZM267.207 530.52C267.207 531.427 267.08 532.233 266.827 532.94C266.587 533.647 266.233 534.247 265.767 534.74C265.313 535.22 264.76 535.587 264.107 535.84C263.453 536.08 262.713 536.2 261.887 536.2C261.127 536.2 260.42 536.08 259.767 535.84C259.127 535.587 258.573 535.22 258.107 534.74C257.64 534.247 257.273 533.647 257.007 532.94C256.753 532.233 256.627 531.427 256.627 530.52C256.627 529.307 256.84 528.287 257.267 527.46C257.693 526.62 258.307 525.98 259.107 525.54C259.907 525.1 260.853 524.88 261.947 524.88C262.973 524.88 263.88 525.1 264.667 525.54C265.453 525.98 266.073 526.62 266.527 527.46C266.98 528.287 267.207 529.307 267.207 530.52ZM259.667 530.52C259.667 531.24 259.74 531.847 259.887 532.34C260.047 532.82 260.293 533.187 260.627 533.44C260.96 533.68 261.393 533.8 261.927 533.8C262.46 533.8 262.887 533.68 263.207 533.44C263.54 533.187 263.78 532.82 263.927 532.34C264.087 531.847 264.167 531.24 264.167 530.52C264.167 529.8 264.087 529.2 263.927 528.72C263.78 528.24 263.54 527.88 263.207 527.64C262.873 527.4 262.44 527.28 261.907 527.28C261.12 527.28 260.547 527.553 260.187 528.1C259.84 528.633 259.667 529.44 259.667 530.52ZM275.749 524.88C276.976 524.88 277.969 525.36 278.729 526.32C279.489 527.267 279.869 528.667 279.869 530.52C279.869 531.76 279.689 532.807 279.329 533.66C278.969 534.5 278.476 535.133 277.849 535.56C277.223 535.987 276.496 536.2 275.669 536.2C275.149 536.2 274.696 536.133 274.309 536C273.936 535.867 273.616 535.693 273.349 535.48C273.083 535.267 272.849 535.04 272.649 534.8H272.489C272.543 535.053 272.583 535.32 272.609 535.6C272.636 535.867 272.649 536.133 272.649 536.4V540.8H269.669V525.08H272.089L272.509 526.5H272.649C272.849 526.207 273.089 525.94 273.369 525.7C273.649 525.447 273.983 525.247 274.369 525.1C274.769 524.953 275.229 524.88 275.749 524.88ZM274.789 527.26C274.269 527.26 273.856 527.367 273.549 527.58C273.243 527.793 273.016 528.12 272.869 528.56C272.736 528.987 272.663 529.527 272.649 530.18V530.5C272.649 531.207 272.716 531.807 272.849 532.3C272.983 532.78 273.209 533.147 273.529 533.4C273.849 533.653 274.283 533.78 274.829 533.78C275.283 533.78 275.656 533.653 275.949 533.4C276.243 533.147 276.463 532.773 276.609 532.28C276.756 531.787 276.829 531.187 276.829 530.48C276.829 529.413 276.663 528.613 276.329 528.08C276.009 527.533 275.496 527.26 274.789 527.26ZM296.501 536L295.461 532.6H290.261L289.221 536H285.961L291.001 521.66H294.701L299.761 536H296.501ZM293.701 526.74C293.634 526.513 293.548 526.227 293.441 525.88C293.334 525.533 293.228 525.18 293.121 524.82C293.014 524.46 292.928 524.147 292.861 523.88C292.794 524.147 292.701 524.48 292.581 524.88C292.474 525.267 292.368 525.64 292.261 526C292.168 526.347 292.094 526.593 292.041 526.74L291.021 530.06H294.741L293.701 526.74ZM307.41 524.88C308.636 524.88 309.63 525.36 310.39 526.32C311.15 527.267 311.53 528.667 311.53 530.52C311.53 531.76 311.35 532.807 310.99 533.66C310.63 534.5 310.136 535.133 309.51 535.56C308.883 535.987 308.156 536.2 307.33 536.2C306.81 536.2 306.356 536.133 305.97 536C305.596 535.867 305.276 535.693 305.01 535.48C304.743 535.267 304.51 535.04 304.31 534.8H304.15C304.203 535.053 304.243 535.32 304.27 535.6C304.296 535.867 304.31 536.133 304.31 536.4V540.8H301.33V525.08H303.75L304.17 526.5H304.31C304.51 526.207 304.75 525.94 305.03 525.7C305.31 525.447 305.643 525.247 306.03 525.1C306.43 524.953 306.89 524.88 307.41 524.88ZM306.45 527.26C305.93 527.26 305.516 527.367 305.21 527.58C304.903 527.793 304.676 528.12 304.53 528.56C304.396 528.987 304.323 529.527 304.31 530.18V530.5C304.31 531.207 304.376 531.807 304.51 532.3C304.643 532.78 304.87 533.147 305.19 533.4C305.51 533.653 305.943 533.78 306.49 533.78C306.943 533.78 307.316 533.653 307.61 533.4C307.903 533.147 308.123 532.773 308.27 532.28C308.416 531.787 308.49 531.187 308.49 530.48C308.49 529.413 308.323 528.613 307.99 528.08C307.67 527.533 307.156 527.26 306.45 527.26ZM320.066 524.88C321.292 524.88 322.286 525.36 323.046 526.32C323.806 527.267 324.186 528.667 324.186 530.52C324.186 531.76 324.006 532.807 323.646 533.66C323.286 534.5 322.792 535.133 322.166 535.56C321.539 535.987 320.812 536.2 319.986 536.2C319.466 536.2 319.012 536.133 318.626 536C318.252 535.867 317.932 535.693 317.666 535.48C317.399 535.267 317.166 535.04 316.966 534.8H316.806C316.859 535.053 316.899 535.32 316.926 535.6C316.952 535.867 316.966 536.133 316.966 536.4V540.8H313.986V525.08H316.406L316.826 526.5H316.966C317.166 526.207 317.406 525.94 317.686 525.7C317.966 525.447 318.299 525.247 318.686 525.1C319.086 524.953 319.546 524.88 320.066 524.88ZM319.106 527.26C318.586 527.26 318.172 527.367 317.866 527.58C317.559 527.793 317.332 528.12 317.186 528.56C317.052 528.987 316.979 529.527 316.966 530.18V530.5C316.966 531.207 317.032 531.807 317.166 532.3C317.299 532.78 317.526 533.147 317.846 533.4C318.166 533.653 318.599 533.78 319.146 533.78C319.599 533.78 319.972 533.653 320.266 533.4C320.559 533.147 320.779 532.773 320.926 532.28C321.072 531.787 321.146 531.187 321.146 530.48C321.146 529.413 320.979 528.613 320.646 528.08C320.326 527.533 319.812 527.26 319.106 527.26ZM332.077 536V521.72H335.097V533.5H340.897V536H332.077ZM347.626 524.86C349.093 524.86 350.213 525.18 350.986 525.82C351.773 526.447 352.166 527.413 352.166 528.72V536H350.086L349.506 534.52H349.426C349.119 534.907 348.799 535.227 348.466 535.48C348.146 535.733 347.773 535.913 347.346 536.02C346.933 536.14 346.419 536.2 345.806 536.2C345.166 536.2 344.586 536.08 344.066 535.84C343.559 535.587 343.159 535.207 342.866 534.7C342.573 534.18 342.426 533.527 342.426 532.74C342.426 531.58 342.833 530.727 343.646 530.18C344.459 529.62 345.679 529.313 347.306 529.26L349.206 529.2V528.72C349.206 528.147 349.053 527.727 348.746 527.46C348.453 527.193 348.039 527.06 347.506 527.06C346.973 527.06 346.453 527.14 345.946 527.3C345.439 527.447 344.933 527.633 344.426 527.86L343.446 525.84C344.033 525.533 344.679 525.293 345.386 525.12C346.106 524.947 346.853 524.86 347.626 524.86ZM348.046 530.98C347.086 531.007 346.419 531.18 346.046 531.5C345.673 531.82 345.486 532.24 345.486 532.76C345.486 533.213 345.619 533.54 345.886 533.74C346.153 533.927 346.499 534.02 346.926 534.02C347.566 534.02 348.106 533.833 348.546 533.46C348.986 533.073 349.206 532.533 349.206 531.84V530.94L348.046 530.98ZM361.416 524.88C362.59 524.88 363.53 525.2 364.236 525.84C364.943 526.467 365.296 527.48 365.296 528.88V536H362.316V529.62C362.316 528.833 362.176 528.247 361.896 527.86C361.616 527.46 361.17 527.26 360.556 527.26C359.65 527.26 359.03 527.573 358.696 528.2C358.363 528.813 358.196 529.7 358.196 530.86V536H355.216V525.08H357.496L357.896 526.48H358.056C358.296 526.107 358.59 525.807 358.936 525.58C359.283 525.34 359.67 525.167 360.096 525.06C360.523 524.94 360.963 524.88 361.416 524.88ZM371.821 536.2C370.607 536.2 369.614 535.727 368.841 534.78C368.081 533.82 367.701 532.413 367.701 530.56C367.701 528.693 368.087 527.28 368.861 526.32C369.634 525.36 370.647 524.88 371.901 524.88C372.421 524.88 372.881 524.953 373.281 525.1C373.681 525.233 374.021 525.42 374.301 525.66C374.594 525.9 374.841 526.173 375.041 526.48H375.141C375.101 526.267 375.054 525.96 375.001 525.56C374.947 525.147 374.921 524.727 374.921 524.3V520.8H377.901V536H375.621L375.041 534.58H374.921C374.734 534.873 374.494 535.147 374.201 535.4C373.921 535.64 373.587 535.833 373.201 535.98C372.814 536.127 372.354 536.2 371.821 536.2ZM372.861 533.82C373.687 533.82 374.267 533.58 374.601 533.1C374.934 532.607 375.107 531.873 375.121 530.9V530.58C375.121 529.513 374.954 528.7 374.621 528.14C374.301 527.58 373.701 527.3 372.821 527.3C372.167 527.3 371.654 527.587 371.281 528.16C370.907 528.72 370.721 529.533 370.721 530.6C370.721 531.667 370.907 532.473 371.281 533.02C371.654 533.553 372.181 533.82 372.861 533.82ZM383.997 525.08V536H381.017V525.08H383.997ZM382.517 520.8C382.957 520.8 383.337 520.907 383.657 521.12C383.977 521.32 384.137 521.7 384.137 522.26C384.137 522.807 383.977 523.187 383.657 523.4C383.337 523.613 382.957 523.72 382.517 523.72C382.064 523.72 381.677 523.613 381.357 523.4C381.05 523.187 380.897 522.807 380.897 522.26C380.897 521.7 381.05 521.32 381.357 521.12C381.677 520.907 382.064 520.8 382.517 520.8ZM393.311 524.88C394.484 524.88 395.424 525.2 396.131 525.84C396.837 526.467 397.191 527.48 397.191 528.88V536H394.211V529.62C394.211 528.833 394.071 528.247 393.791 527.86C393.511 527.46 393.064 527.26 392.451 527.26C391.544 527.26 390.924 527.573 390.591 528.2C390.257 528.813 390.091 529.7 390.091 530.86V536H387.111V525.08H389.391L389.791 526.48H389.951C390.191 526.107 390.484 525.807 390.831 525.58C391.177 525.34 391.564 525.167 391.991 525.06C392.417 524.94 392.857 524.88 393.311 524.88ZM403.795 524.88C404.462 524.88 405.062 525.013 405.595 525.28C406.129 525.547 406.582 525.947 406.955 526.48H407.035L407.275 525.08H409.795V536.02C409.795 537.06 409.589 537.933 409.175 538.64C408.775 539.347 408.169 539.88 407.355 540.24C406.542 540.613 405.535 540.8 404.335 540.8C403.562 540.8 402.842 540.753 402.175 540.66C401.522 540.567 400.882 540.4 400.255 540.16V537.78C400.709 537.967 401.162 538.12 401.615 538.24C402.082 538.373 402.555 538.467 403.035 538.52C403.529 538.587 404.022 538.62 404.515 538.62C405.289 538.62 405.862 538.413 406.235 538C406.622 537.587 406.815 536.967 406.815 536.14V535.92C406.815 535.693 406.822 535.46 406.835 535.22C406.862 534.98 406.882 534.767 406.895 534.58H406.815C406.442 535.153 405.995 535.567 405.475 535.82C404.955 536.073 404.369 536.2 403.715 536.2C402.422 536.2 401.409 535.707 400.675 534.72C399.955 533.72 399.595 532.333 399.595 530.56C399.595 529.36 399.762 528.34 400.095 527.5C400.429 526.647 400.909 526 401.535 525.56C402.175 525.107 402.929 524.88 403.795 524.88ZM404.735 527.3C404.269 527.3 403.875 527.427 403.555 527.68C403.249 527.92 403.015 528.287 402.855 528.78C402.709 529.26 402.635 529.867 402.635 530.6C402.635 531.693 402.809 532.513 403.155 533.06C403.502 533.593 404.042 533.86 404.775 533.86C405.162 533.86 405.495 533.813 405.775 533.72C406.055 533.613 406.282 533.447 406.455 533.22C406.642 532.98 406.782 532.673 406.875 532.3C406.969 531.927 407.015 531.473 407.015 530.94V530.58C407.015 529.793 406.935 529.16 406.775 528.68C406.615 528.2 406.369 527.853 406.035 527.64C405.702 527.413 405.269 527.3 404.735 527.3ZM422.907 521.72C424.747 521.72 426.087 522.12 426.927 522.92C427.78 523.707 428.207 524.793 428.207 526.18C428.207 526.807 428.114 527.407 427.927 527.98C427.74 528.54 427.427 529.047 426.987 529.5C426.56 529.94 425.994 530.287 425.287 530.54C424.58 530.793 423.707 530.92 422.667 530.92H421.367V536H418.347V521.72H422.907ZM422.747 524.2H421.367V528.44H422.367C422.94 528.44 423.434 528.367 423.847 528.22C424.26 528.073 424.58 527.84 424.807 527.52C425.034 527.2 425.147 526.787 425.147 526.28C425.147 525.573 424.954 525.053 424.567 524.72C424.18 524.373 423.574 524.2 422.747 524.2ZM435.145 524.86C436.612 524.86 437.732 525.18 438.505 525.82C439.292 526.447 439.685 527.413 439.685 528.72V536H437.605L437.025 534.52H436.945C436.639 534.907 436.319 535.227 435.985 535.48C435.665 535.733 435.292 535.913 434.865 536.02C434.452 536.14 433.939 536.2 433.325 536.2C432.685 536.2 432.105 536.08 431.585 535.84C431.079 535.587 430.679 535.207 430.385 534.7C430.092 534.18 429.945 533.527 429.945 532.74C429.945 531.58 430.352 530.727 431.165 530.18C431.979 529.62 433.199 529.313 434.825 529.26L436.725 529.2V528.72C436.725 528.147 436.572 527.727 436.265 527.46C435.972 527.193 435.559 527.06 435.025 527.06C434.492 527.06 433.972 527.14 433.465 527.3C432.959 527.447 432.452 527.633 431.945 527.86L430.965 525.84C431.552 525.533 432.199 525.293 432.905 525.12C433.625 524.947 434.372 524.86 435.145 524.86ZM435.565 530.98C434.605 531.007 433.939 531.18 433.565 531.5C433.192 531.82 433.005 532.24 433.005 532.76C433.005 533.213 433.139 533.54 433.405 533.74C433.672 533.927 434.019 534.02 434.445 534.02C435.085 534.02 435.625 533.833 436.065 533.46C436.505 533.073 436.725 532.533 436.725 531.84V530.94L435.565 530.98ZM446.276 524.88C446.942 524.88 447.542 525.013 448.076 525.28C448.609 525.547 449.062 525.947 449.436 526.48H449.516L449.756 525.08H452.276V536.02C452.276 537.06 452.069 537.933 451.656 538.64C451.256 539.347 450.649 539.88 449.836 540.24C449.022 540.613 448.016 540.8 446.816 540.8C446.042 540.8 445.322 540.753 444.656 540.66C444.002 540.567 443.362 540.4 442.736 540.16V537.78C443.189 537.967 443.642 538.12 444.096 538.24C444.562 538.373 445.036 538.467 445.516 538.52C446.009 538.587 446.502 538.62 446.996 538.62C447.769 538.62 448.342 538.413 448.716 538C449.102 537.587 449.296 536.967 449.296 536.14V535.92C449.296 535.693 449.302 535.46 449.316 535.22C449.342 534.98 449.362 534.767 449.376 534.58H449.296C448.922 535.153 448.476 535.567 447.956 535.82C447.436 536.073 446.849 536.2 446.196 536.2C444.902 536.2 443.889 535.707 443.156 534.72C442.436 533.72 442.076 532.333 442.076 530.56C442.076 529.36 442.242 528.34 442.576 527.5C442.909 526.647 443.389 526 444.016 525.56C444.656 525.107 445.409 524.88 446.276 524.88ZM447.216 527.3C446.749 527.3 446.356 527.427 446.036 527.68C445.729 527.92 445.496 528.287 445.336 528.78C445.189 529.26 445.116 529.867 445.116 530.6C445.116 531.693 445.289 532.513 445.636 533.06C445.982 533.593 446.522 533.86 447.256 533.86C447.642 533.86 447.976 533.813 448.256 533.72C448.536 533.613 448.762 533.447 448.936 533.22C449.122 532.98 449.262 532.673 449.356 532.3C449.449 531.927 449.496 531.473 449.496 530.94V530.58C449.496 529.793 449.416 529.16 449.256 528.68C449.096 528.2 448.849 527.853 448.516 527.64C448.182 527.413 447.749 527.3 447.216 527.3ZM459.892 524.88C460.905 524.88 461.772 525.073 462.492 525.46C463.225 525.847 463.792 526.407 464.192 527.14C464.592 527.873 464.792 528.773 464.792 529.84V531.28H457.752C457.779 532.12 458.025 532.78 458.492 533.26C458.972 533.74 459.632 533.98 460.472 533.98C461.179 533.98 461.819 533.913 462.392 533.78C462.965 533.633 463.559 533.413 464.172 533.12V535.42C463.639 535.687 463.072 535.88 462.472 536C461.885 536.133 461.172 536.2 460.332 536.2C459.239 536.2 458.272 536 457.432 535.6C456.592 535.187 455.932 534.567 455.452 533.74C454.972 532.913 454.732 531.873 454.732 530.62C454.732 529.34 454.945 528.28 455.372 527.44C455.812 526.587 456.419 525.947 457.192 525.52C457.965 525.093 458.865 524.88 459.892 524.88ZM459.912 527C459.339 527 458.859 527.187 458.472 527.56C458.099 527.933 457.879 528.513 457.812 529.3H461.992C461.992 528.86 461.912 528.467 461.752 528.12C461.605 527.773 461.379 527.5 461.072 527.3C460.765 527.1 460.379 527 459.912 527Z" fill="white"/>
<path d="M202.111 578L200.735 574.464H196.207L194.847 578H193.391L197.855 566.528H199.151L203.599 578H202.111ZM199.023 569.728C198.991 569.643 198.937 569.488 198.863 569.264C198.788 569.04 198.713 568.811 198.639 568.576C198.575 568.331 198.521 568.144 198.479 568.016C198.425 568.229 198.367 568.448 198.303 568.672C198.249 568.885 198.191 569.083 198.127 569.264C198.073 569.445 198.025 569.6 197.983 569.728L196.687 573.184H200.303L199.023 569.728ZM210.534 578H209.126V565.84H210.534V578ZM216.499 569.28C217.544 569.28 218.317 569.509 218.819 569.968C219.32 570.427 219.571 571.157 219.571 572.16V578H218.547L218.275 576.784H218.211C217.965 577.093 217.709 577.355 217.443 577.568C217.187 577.771 216.888 577.92 216.547 578.016C216.216 578.112 215.811 578.16 215.331 578.16C214.819 578.16 214.355 578.069 213.939 577.888C213.533 577.707 213.213 577.429 212.979 577.056C212.744 576.672 212.627 576.192 212.627 575.616C212.627 574.763 212.963 574.107 213.635 573.648C214.307 573.179 215.341 572.923 216.739 572.88L218.195 572.832V572.32C218.195 571.605 218.04 571.109 217.731 570.832C217.421 570.555 216.984 570.416 216.419 570.416C215.971 570.416 215.544 570.485 215.139 570.624C214.733 570.752 214.355 570.901 214.003 571.072L213.571 570.016C213.944 569.813 214.387 569.643 214.899 569.504C215.411 569.355 215.944 569.28 216.499 569.28ZM216.915 573.856C215.848 573.899 215.107 574.069 214.691 574.368C214.285 574.667 214.083 575.088 214.083 575.632C214.083 576.112 214.227 576.464 214.515 576.688C214.813 576.912 215.192 577.024 215.651 577.024C216.376 577.024 216.979 576.827 217.459 576.432C217.939 576.027 218.179 575.408 218.179 574.576V573.808L216.915 573.856ZM226.347 569.264C227.371 569.264 228.145 569.515 228.667 570.016C229.19 570.507 229.451 571.307 229.451 572.416V578H228.059V572.512C228.059 571.819 227.905 571.301 227.595 570.96C227.286 570.619 226.801 570.448 226.139 570.448C225.19 570.448 224.534 570.715 224.171 571.248C223.809 571.781 223.627 572.549 223.627 573.552V578H222.219V569.424H223.355L223.563 570.592H223.643C223.835 570.293 224.07 570.048 224.347 569.856C224.635 569.653 224.95 569.504 225.291 569.408C225.633 569.312 225.985 569.264 226.347 569.264ZM235.15 578.16C234.083 578.16 233.23 577.792 232.59 577.056C231.95 576.309 231.63 575.2 231.63 573.728C231.63 572.256 231.95 571.147 232.59 570.4C233.241 569.643 234.099 569.264 235.166 569.264C235.614 569.264 236.003 569.323 236.334 569.44C236.665 569.547 236.953 569.696 237.198 569.888C237.443 570.08 237.651 570.293 237.822 570.528H237.918C237.907 570.389 237.886 570.187 237.854 569.92C237.833 569.643 237.822 569.424 237.822 569.264V565.84H239.23V578H238.094L237.886 576.848H237.822C237.651 577.093 237.443 577.317 237.198 577.52C236.953 577.712 236.659 577.867 236.318 577.984C235.987 578.101 235.598 578.16 235.15 578.16ZM235.374 576.992C236.281 576.992 236.915 576.747 237.278 576.256C237.651 575.755 237.838 575.003 237.838 574V573.744C237.838 572.677 237.662 571.861 237.31 571.296C236.958 570.72 236.307 570.432 235.358 570.432C234.601 570.432 234.03 570.736 233.646 571.344C233.273 571.941 233.086 572.747 233.086 573.76C233.086 574.784 233.273 575.579 233.646 576.144C234.03 576.709 234.606 576.992 235.374 576.992ZM243.362 569.424V578H241.954V569.424H243.362ZM242.674 566.208C242.887 566.208 243.074 566.283 243.234 566.432C243.404 566.571 243.49 566.795 243.49 567.104C243.49 567.403 243.404 567.627 243.234 567.776C243.074 567.925 242.887 568 242.674 568C242.439 568 242.242 567.925 242.082 567.776C241.922 567.627 241.842 567.403 241.842 567.104C241.842 566.795 241.922 566.571 242.082 566.432C242.242 566.283 242.439 566.208 242.674 566.208ZM250.207 569.264C251.231 569.264 252.004 569.515 252.527 570.016C253.049 570.507 253.311 571.307 253.311 572.416V578H251.919V572.512C251.919 571.819 251.764 571.301 251.455 570.96C251.145 570.619 250.66 570.448 249.999 570.448C249.049 570.448 248.393 570.715 248.031 571.248C247.668 571.781 247.487 572.549 247.487 573.552V578H246.079V569.424H247.215L247.423 570.592H247.503C247.695 570.293 247.929 570.048 248.207 569.856C248.495 569.653 248.809 569.504 249.151 569.408C249.492 569.312 249.844 569.264 250.207 569.264ZM259.009 569.264C259.575 569.264 260.081 569.371 260.529 569.584C260.988 569.797 261.377 570.123 261.697 570.56H261.777L261.969 569.424H263.089V578.144C263.089 578.955 262.951 579.632 262.673 580.176C262.396 580.731 261.975 581.147 261.409 581.424C260.844 581.701 260.124 581.84 259.249 581.84C258.631 581.84 258.06 581.792 257.537 581.696C257.025 581.611 256.567 581.477 256.161 581.296V580C256.439 580.139 256.743 580.256 257.073 580.352C257.404 580.459 257.761 580.539 258.145 580.592C258.529 580.645 258.924 580.672 259.329 580.672C260.065 580.672 260.641 580.453 261.057 580.016C261.484 579.589 261.697 579.003 261.697 578.256V577.92C261.697 577.792 261.703 577.611 261.713 577.376C261.724 577.131 261.735 576.96 261.745 576.864H261.681C261.383 577.301 261.009 577.627 260.561 577.84C260.124 578.053 259.612 578.16 259.025 578.16C257.916 578.16 257.047 577.771 256.417 576.992C255.799 576.213 255.489 575.125 255.489 573.728C255.489 572.811 255.628 572.021 255.905 571.36C256.193 570.688 256.599 570.171 257.121 569.808C257.644 569.445 258.273 569.264 259.009 569.264ZM259.201 570.448C258.721 570.448 258.311 570.576 257.969 570.832C257.639 571.088 257.383 571.461 257.201 571.952C257.031 572.443 256.945 573.04 256.945 573.744C256.945 574.8 257.137 575.611 257.521 576.176C257.916 576.731 258.487 577.008 259.233 577.008C259.671 577.008 260.044 576.955 260.353 576.848C260.663 576.731 260.919 576.555 261.121 576.32C261.324 576.075 261.473 575.765 261.569 575.392C261.665 575.019 261.713 574.576 261.713 574.064V573.728C261.713 572.949 261.623 572.32 261.441 571.84C261.271 571.36 260.999 571.008 260.625 570.784C260.252 570.56 259.777 570.448 259.201 570.448ZM274.049 569.264C275.105 569.264 275.953 569.632 276.593 570.368C277.244 571.104 277.569 572.213 277.569 573.696C277.569 574.667 277.42 575.488 277.121 576.16C276.833 576.821 276.423 577.323 275.889 577.664C275.367 577.995 274.748 578.16 274.033 578.16C273.596 578.16 273.207 578.101 272.865 577.984C272.524 577.867 272.231 577.717 271.985 577.536C271.751 577.344 271.548 577.136 271.377 576.912H271.281C271.303 577.093 271.324 577.323 271.345 577.6C271.367 577.877 271.377 578.117 271.377 578.32V581.84H269.969V569.424H271.121L271.313 570.592H271.377C271.548 570.347 271.751 570.123 271.985 569.92C272.231 569.717 272.519 569.557 272.849 569.44C273.191 569.323 273.591 569.264 274.049 569.264ZM273.793 570.448C273.217 570.448 272.753 570.56 272.401 570.784C272.049 570.997 271.793 571.323 271.633 571.76C271.473 572.197 271.388 572.752 271.377 573.424V573.696C271.377 574.4 271.452 574.997 271.601 575.488C271.751 575.979 272.001 576.352 272.353 576.608C272.716 576.864 273.207 576.992 273.825 576.992C274.348 576.992 274.775 576.848 275.105 576.56C275.447 576.272 275.697 575.883 275.857 575.392C276.028 574.891 276.113 574.32 276.113 573.68C276.113 572.699 275.921 571.915 275.537 571.328C275.164 570.741 274.583 570.448 273.793 570.448ZM283.061 569.28C284.106 569.28 284.88 569.509 285.381 569.968C285.882 570.427 286.133 571.157 286.133 572.16V578H285.109L284.837 576.784H284.773C284.528 577.093 284.272 577.355 284.005 577.568C283.749 577.771 283.45 577.92 283.109 578.016C282.778 578.112 282.373 578.16 281.893 578.16C281.381 578.16 280.917 578.069 280.501 577.888C280.096 577.707 279.776 577.429 279.541 577.056C279.306 576.672 279.189 576.192 279.189 575.616C279.189 574.763 279.525 574.107 280.197 573.648C280.869 573.179 281.904 572.923 283.301 572.88L284.757 572.832V572.32C284.757 571.605 284.602 571.109 284.293 570.832C283.984 570.555 283.546 570.416 282.981 570.416C282.533 570.416 282.106 570.485 281.701 570.624C281.296 570.752 280.917 570.901 280.565 571.072L280.133 570.016C280.506 569.813 280.949 569.643 281.461 569.504C281.973 569.355 282.506 569.28 283.061 569.28ZM283.477 573.856C282.41 573.899 281.669 574.069 281.253 574.368C280.848 574.667 280.645 575.088 280.645 575.632C280.645 576.112 280.789 576.464 281.077 576.688C281.376 576.912 281.754 577.024 282.213 577.024C282.938 577.024 283.541 576.827 284.021 576.432C284.501 576.027 284.741 575.408 284.741 574.576V573.808L283.477 573.856ZM291.822 569.264C292.387 569.264 292.894 569.371 293.342 569.584C293.801 569.797 294.19 570.123 294.51 570.56H294.59L294.782 569.424H295.902V578.144C295.902 578.955 295.763 579.632 295.486 580.176C295.209 580.731 294.787 581.147 294.222 581.424C293.657 581.701 292.937 581.84 292.062 581.84C291.443 581.84 290.873 581.792 290.35 581.696C289.838 581.611 289.379 581.477 288.974 581.296V580C289.251 580.139 289.555 580.256 289.886 580.352C290.217 580.459 290.574 580.539 290.958 580.592C291.342 580.645 291.737 580.672 292.142 580.672C292.878 580.672 293.454 580.453 293.87 580.016C294.297 579.589 294.51 579.003 294.51 578.256V577.92C294.51 577.792 294.515 577.611 294.526 577.376C294.537 577.131 294.547 576.96 294.558 576.864H294.494C294.195 577.301 293.822 577.627 293.374 577.84C292.937 578.053 292.425 578.16 291.838 578.16C290.729 578.16 289.859 577.771 289.23 576.992C288.611 576.213 288.302 575.125 288.302 573.728C288.302 572.811 288.441 572.021 288.718 571.36C289.006 570.688 289.411 570.171 289.934 569.808C290.457 569.445 291.086 569.264 291.822 569.264ZM292.014 570.448C291.534 570.448 291.123 570.576 290.782 570.832C290.451 571.088 290.195 571.461 290.014 571.952C289.843 572.443 289.758 573.04 289.758 573.744C289.758 574.8 289.95 575.611 290.334 576.176C290.729 576.731 291.299 577.008 292.046 577.008C292.483 577.008 292.857 576.955 293.166 576.848C293.475 576.731 293.731 576.555 293.934 576.32C294.137 576.075 294.286 575.765 294.382 575.392C294.478 575.019 294.526 574.576 294.526 574.064V573.728C294.526 572.949 294.435 572.32 294.254 571.84C294.083 571.36 293.811 571.008 293.438 570.784C293.065 570.56 292.59 570.448 292.014 570.448ZM301.938 569.264C302.674 569.264 303.303 569.424 303.826 569.744C304.359 570.064 304.764 570.517 305.042 571.104C305.33 571.68 305.474 572.357 305.474 573.136V573.984H299.602C299.623 574.955 299.868 575.696 300.338 576.208C300.818 576.709 301.484 576.96 302.338 576.96C302.882 576.96 303.362 576.912 303.778 576.816C304.204 576.709 304.642 576.56 305.09 576.368V577.6C304.652 577.792 304.22 577.931 303.794 578.016C303.367 578.112 302.86 578.16 302.274 578.16C301.463 578.16 300.743 577.995 300.114 577.664C299.495 577.333 299.01 576.843 298.658 576.192C298.316 575.531 298.146 574.725 298.146 573.776C298.146 572.837 298.3 572.032 298.61 571.36C298.93 570.688 299.372 570.171 299.938 569.808C300.514 569.445 301.18 569.264 301.938 569.264ZM301.922 570.416C301.25 570.416 300.716 570.635 300.322 571.072C299.938 571.499 299.708 572.096 299.634 572.864H304.002C304.002 572.373 303.927 571.947 303.778 571.584C303.628 571.221 303.399 570.939 303.09 570.736C302.791 570.523 302.402 570.416 301.922 570.416ZM315.765 570.512H313.605V578H312.197V570.512H310.693V569.856L312.197 569.376V568.88C312.197 568.144 312.304 567.547 312.517 567.088C312.741 566.629 313.061 566.293 313.477 566.08C313.893 565.867 314.394 565.76 314.981 565.76C315.322 565.76 315.632 565.792 315.909 565.856C316.197 565.909 316.442 565.973 316.645 566.048L316.277 567.152C316.106 567.099 315.909 567.045 315.685 566.992C315.461 566.939 315.232 566.912 314.997 566.912C314.528 566.912 314.176 567.072 313.941 567.392C313.717 567.701 313.605 568.192 313.605 568.864V569.424H315.765V570.512ZM324.769 573.696C324.769 574.411 324.673 575.045 324.481 575.6C324.3 576.144 324.033 576.608 323.681 576.992C323.34 577.376 322.918 577.669 322.417 577.872C321.926 578.064 321.377 578.16 320.769 578.16C320.204 578.16 319.681 578.064 319.201 577.872C318.721 577.669 318.305 577.376 317.953 576.992C317.601 576.608 317.324 576.144 317.121 575.6C316.929 575.045 316.833 574.411 316.833 573.696C316.833 572.747 316.993 571.947 317.313 571.296C317.633 570.635 318.092 570.133 318.689 569.792C319.286 569.44 319.996 569.264 320.817 569.264C321.596 569.264 322.278 569.44 322.865 569.792C323.462 570.133 323.926 570.635 324.257 571.296C324.598 571.947 324.769 572.747 324.769 573.696ZM318.289 573.696C318.289 574.368 318.374 574.955 318.545 575.456C318.726 575.947 319.004 576.325 319.377 576.592C319.75 576.859 320.225 576.992 320.801 576.992C321.377 576.992 321.852 576.859 322.225 576.592C322.598 576.325 322.87 575.947 323.041 575.456C323.222 574.955 323.313 574.368 323.313 573.696C323.313 573.013 323.222 572.432 323.041 571.952C322.86 571.472 322.582 571.104 322.209 570.848C321.846 570.581 321.372 570.448 320.785 570.448C319.91 570.448 319.276 570.736 318.881 571.312C318.486 571.888 318.289 572.683 318.289 573.696ZM331.001 569.264C331.161 569.264 331.331 569.275 331.513 569.296C331.705 569.307 331.87 569.328 332.009 569.36L331.833 570.656C331.694 570.624 331.539 570.597 331.369 570.576C331.209 570.555 331.054 570.544 330.905 570.544C330.574 570.544 330.259 570.613 329.961 570.752C329.662 570.891 329.395 571.088 329.161 571.344C328.926 571.589 328.739 571.888 328.601 572.24C328.473 572.592 328.409 572.987 328.409 573.424V578H327.001V569.424H328.153L328.313 570.992H328.377C328.558 570.672 328.777 570.384 329.033 570.128C329.289 569.861 329.582 569.653 329.913 569.504C330.243 569.344 330.606 569.264 331.001 569.264ZM340.806 578.16C339.74 578.16 338.886 577.792 338.246 577.056C337.606 576.309 337.286 575.2 337.286 573.728C337.286 572.256 337.606 571.147 338.246 570.4C338.897 569.643 339.756 569.264 340.822 569.264C341.27 569.264 341.66 569.323 341.99 569.44C342.321 569.547 342.609 569.696 342.854 569.888C343.1 570.08 343.308 570.293 343.478 570.528H343.574C343.564 570.389 343.542 570.187 343.51 569.92C343.489 569.643 343.478 569.424 343.478 569.264V565.84H344.886V578H343.75L343.542 576.848H343.478C343.308 577.093 343.1 577.317 342.854 577.52C342.609 577.712 342.316 577.867 341.974 577.984C341.644 578.101 341.254 578.16 340.806 578.16ZM341.03 576.992C341.937 576.992 342.572 576.747 342.934 576.256C343.308 575.755 343.494 575.003 343.494 574V573.744C343.494 572.677 343.318 571.861 342.966 571.296C342.614 570.72 341.964 570.432 341.014 570.432C340.257 570.432 339.686 570.736 339.302 571.344C338.929 571.941 338.742 572.747 338.742 573.76C338.742 574.784 338.929 575.579 339.302 576.144C339.686 576.709 340.262 576.992 341.03 576.992ZM350.922 569.264C351.658 569.264 352.287 569.424 352.81 569.744C353.343 570.064 353.749 570.517 354.026 571.104C354.314 571.68 354.458 572.357 354.458 573.136V573.984H348.586C348.607 574.955 348.853 575.696 349.322 576.208C349.802 576.709 350.469 576.96 351.322 576.96C351.866 576.96 352.346 576.912 352.762 576.816C353.189 576.709 353.626 576.56 354.074 576.368V577.6C353.637 577.792 353.205 577.931 352.778 578.016C352.351 578.112 351.845 578.16 351.258 578.16C350.447 578.16 349.727 577.995 349.098 577.664C348.479 577.333 347.994 576.843 347.642 576.192C347.301 575.531 347.13 574.725 347.13 573.776C347.13 572.837 347.285 572.032 347.594 571.36C347.914 570.688 348.357 570.171 348.922 569.808C349.498 569.445 350.165 569.264 350.922 569.264ZM350.906 570.416C350.234 570.416 349.701 570.635 349.306 571.072C348.922 571.499 348.693 572.096 348.618 572.864H352.986C352.986 572.373 352.911 571.947 352.762 571.584C352.613 571.221 352.383 570.939 352.074 570.736C351.775 570.523 351.386 570.416 350.906 570.416ZM362.225 575.632C362.225 576.187 362.087 576.651 361.809 577.024C361.532 577.397 361.137 577.68 360.625 577.872C360.113 578.064 359.505 578.16 358.801 578.16C358.204 578.16 357.687 578.112 357.249 578.016C356.823 577.92 356.444 577.787 356.113 577.616V576.336C356.455 576.507 356.865 576.667 357.345 576.816C357.836 576.955 358.332 577.024 358.833 577.024C359.548 577.024 360.065 576.912 360.385 576.688C360.705 576.453 360.865 576.144 360.865 575.76C360.865 575.547 360.807 575.355 360.689 575.184C360.572 575.013 360.359 574.843 360.049 574.672C359.751 574.501 359.319 574.309 358.753 574.096C358.199 573.883 357.724 573.669 357.329 573.456C356.935 573.243 356.631 572.987 356.417 572.688C356.204 572.389 356.097 572.005 356.097 571.536C356.097 570.811 356.391 570.251 356.977 569.856C357.575 569.461 358.353 569.264 359.313 569.264C359.836 569.264 360.321 569.317 360.769 569.424C361.228 569.52 361.655 569.659 362.049 569.84L361.569 570.96C361.335 570.853 361.084 570.763 360.817 570.688C360.561 570.603 360.3 570.539 360.033 570.496C359.767 570.443 359.495 570.416 359.217 570.416C358.641 570.416 358.199 570.512 357.889 570.704C357.591 570.885 357.441 571.136 357.441 571.456C357.441 571.691 357.511 571.893 357.649 572.064C357.788 572.224 358.017 572.384 358.337 572.544C358.668 572.693 359.105 572.875 359.649 573.088C360.193 573.291 360.657 573.499 361.041 573.712C361.425 573.925 361.719 574.187 361.921 574.496C362.124 574.795 362.225 575.173 362.225 575.632ZM365.69 572.192C365.69 572.363 365.679 572.587 365.658 572.864C365.647 573.141 365.636 573.381 365.626 573.584H365.69C365.754 573.499 365.85 573.376 365.978 573.216C366.106 573.056 366.234 572.896 366.362 572.736C366.5 572.565 366.618 572.427 366.714 572.32L369.45 569.424H371.098L367.626 573.088L371.338 578H369.642L366.666 574L365.69 574.848V578H364.298V565.84H365.69V572.192ZM375.708 577.008C375.922 577.008 376.14 576.992 376.364 576.96C376.588 576.917 376.77 576.875 376.908 576.832V577.904C376.759 577.979 376.546 578.037 376.268 578.08C375.991 578.133 375.724 578.16 375.468 578.16C375.02 578.16 374.604 578.085 374.22 577.936C373.847 577.776 373.543 577.504 373.308 577.12C373.074 576.736 372.956 576.197 372.956 575.504V570.512H371.74V569.84L372.972 569.28L373.532 567.456H374.364V569.424H376.844V570.512H374.364V575.472C374.364 575.995 374.487 576.384 374.732 576.64C374.988 576.885 375.314 577.008 375.708 577.008ZM386.082 573.696C386.082 574.411 385.986 575.045 385.794 575.6C385.612 576.144 385.346 576.608 384.994 576.992C384.652 577.376 384.231 577.669 383.73 577.872C383.239 578.064 382.69 578.16 382.082 578.16C381.516 578.16 380.994 578.064 380.514 577.872C380.034 577.669 379.618 577.376 379.266 576.992C378.914 576.608 378.636 576.144 378.434 575.6C378.242 575.045 378.146 574.411 378.146 573.696C378.146 572.747 378.306 571.947 378.626 571.296C378.946 570.635 379.404 570.133 380.002 569.792C380.599 569.44 381.308 569.264 382.13 569.264C382.908 569.264 383.591 569.44 384.178 569.792C384.775 570.133 385.239 570.635 385.57 571.296C385.911 571.947 386.082 572.747 386.082 573.696ZM379.602 573.696C379.602 574.368 379.687 574.955 379.858 575.456C380.039 575.947 380.316 576.325 380.69 576.592C381.063 576.859 381.538 576.992 382.114 576.992C382.69 576.992 383.164 576.859 383.538 576.592C383.911 576.325 384.183 575.947 384.354 575.456C384.535 574.955 384.626 574.368 384.626 573.696C384.626 573.013 384.535 572.432 384.354 571.952C384.172 571.472 383.895 571.104 383.522 570.848C383.159 570.581 382.684 570.448 382.098 570.448C381.223 570.448 380.588 570.736 380.194 571.312C379.799 571.888 379.602 572.683 379.602 573.696ZM392.393 569.264C393.449 569.264 394.297 569.632 394.937 570.368C395.588 571.104 395.913 572.213 395.913 573.696C395.913 574.667 395.764 575.488 395.465 576.16C395.177 576.821 394.766 577.323 394.233 577.664C393.71 577.995 393.092 578.16 392.377 578.16C391.94 578.16 391.55 578.101 391.209 577.984C390.868 577.867 390.574 577.717 390.329 577.536C390.094 577.344 389.892 577.136 389.721 576.912H389.625C389.646 577.093 389.668 577.323 389.689 577.6C389.71 577.877 389.721 578.117 389.721 578.32V581.84H388.313V569.424H389.465L389.657 570.592H389.721C389.892 570.347 390.094 570.123 390.329 569.92C390.574 569.717 390.862 569.557 391.193 569.44C391.534 569.323 391.934 569.264 392.393 569.264ZM392.137 570.448C391.561 570.448 391.097 570.56 390.745 570.784C390.393 570.997 390.137 571.323 389.977 571.76C389.817 572.197 389.732 572.752 389.721 573.424V573.696C389.721 574.4 389.796 574.997 389.945 575.488C390.094 575.979 390.345 576.352 390.697 576.608C391.06 576.864 391.55 576.992 392.169 576.992C392.692 576.992 393.118 576.848 393.449 576.56C393.79 576.272 394.041 575.883 394.201 575.392C394.372 574.891 394.457 574.32 394.457 573.68C394.457 572.699 394.265 571.915 393.881 571.328C393.508 570.741 392.926 570.448 392.137 570.448ZM405.561 569.28C406.606 569.28 407.38 569.509 407.881 569.968C408.382 570.427 408.633 571.157 408.633 572.16V578H407.609L407.337 576.784H407.273C407.028 577.093 406.772 577.355 406.505 577.568C406.249 577.771 405.95 577.92 405.609 578.016C405.278 578.112 404.873 578.16 404.393 578.16C403.881 578.16 403.417 578.069 403.001 577.888C402.596 577.707 402.276 577.429 402.041 577.056C401.806 576.672 401.689 576.192 401.689 575.616C401.689 574.763 402.025 574.107 402.697 573.648C403.369 573.179 404.404 572.923 405.801 572.88L407.257 572.832V572.32C407.257 571.605 407.102 571.109 406.793 570.832C406.484 570.555 406.046 570.416 405.481 570.416C405.033 570.416 404.606 570.485 404.201 570.624C403.796 570.752 403.417 570.901 403.065 571.072L402.633 570.016C403.006 569.813 403.449 569.643 403.961 569.504C404.473 569.355 405.006 569.28 405.561 569.28ZM405.977 573.856C404.91 573.899 404.169 574.069 403.753 574.368C403.348 574.667 403.145 575.088 403.145 575.632C403.145 576.112 403.289 576.464 403.577 576.688C403.876 576.912 404.254 577.024 404.713 577.024C405.438 577.024 406.041 576.827 406.521 576.432C407.001 576.027 407.241 575.408 407.241 574.576V573.808L405.977 573.856ZM415.362 569.264C416.418 569.264 417.266 569.632 417.906 570.368C418.557 571.104 418.882 572.213 418.882 573.696C418.882 574.667 418.733 575.488 418.434 576.16C418.146 576.821 417.735 577.323 417.202 577.664C416.679 577.995 416.061 578.16 415.346 578.16C414.909 578.16 414.519 578.101 414.178 577.984C413.837 577.867 413.543 577.717 413.298 577.536C413.063 577.344 412.861 577.136 412.69 576.912H412.594C412.615 577.093 412.637 577.323 412.658 577.6C412.679 577.877 412.69 578.117 412.69 578.32V581.84H411.282V569.424H412.434L412.626 570.592H412.69C412.861 570.347 413.063 570.123 413.298 569.92C413.543 569.717 413.831 569.557 414.162 569.44C414.503 569.323 414.903 569.264 415.362 569.264ZM415.106 570.448C414.53 570.448 414.066 570.56 413.714 570.784C413.362 570.997 413.106 571.323 412.946 571.76C412.786 572.197 412.701 572.752 412.69 573.424V573.696C412.69 574.4 412.765 574.997 412.914 575.488C413.063 575.979 413.314 576.352 413.666 576.608C414.029 576.864 414.519 576.992 415.138 576.992C415.661 576.992 416.087 576.848 416.418 576.56C416.759 576.272 417.01 575.883 417.17 575.392C417.341 574.891 417.426 574.32 417.426 573.68C417.426 572.699 417.234 571.915 416.85 571.328C416.477 570.741 415.895 570.448 415.106 570.448ZM425.206 569.264C426.262 569.264 427.11 569.632 427.75 570.368C428.4 571.104 428.726 572.213 428.726 573.696C428.726 574.667 428.576 575.488 428.278 576.16C427.99 576.821 427.579 577.323 427.046 577.664C426.523 577.995 425.904 578.16 425.19 578.16C424.752 578.16 424.363 578.101 424.022 577.984C423.68 577.867 423.387 577.717 423.142 577.536C422.907 577.344 422.704 577.136 422.534 576.912H422.438C422.459 577.093 422.48 577.323 422.502 577.6C422.523 577.877 422.534 578.117 422.534 578.32V581.84H421.126V569.424H422.278L422.47 570.592H422.534C422.704 570.347 422.907 570.123 423.142 569.92C423.387 569.717 423.675 569.557 424.006 569.44C424.347 569.323 424.747 569.264 425.206 569.264ZM424.95 570.448C424.374 570.448 423.91 570.56 423.558 570.784C423.206 570.997 422.95 571.323 422.79 571.76C422.63 572.197 422.544 572.752 422.534 573.424V573.696C422.534 574.4 422.608 574.997 422.758 575.488C422.907 575.979 423.158 576.352 423.51 576.608C423.872 576.864 424.363 576.992 424.982 576.992C425.504 576.992 425.931 576.848 426.262 576.56C426.603 576.272 426.854 575.883 427.014 575.392C427.184 574.891 427.27 574.32 427.27 573.68C427.27 572.699 427.078 571.915 426.694 571.328C426.32 570.741 425.739 570.448 424.95 570.448Z" fill="white" fill-opacity="0.6"/>
<g filter="url(#filter1_d_1_521)">
<path d="M300.422 646.904C300.422 648.024 300.212 648.962 299.792 649.718C299.372 650.474 298.765 651.043 297.972 651.426C297.188 651.809 296.241 652 295.13 652H292.33V642.004H295.424C296.441 642.004 297.323 642.191 298.07 642.564C298.817 642.937 299.395 643.488 299.806 644.216C300.217 644.935 300.422 645.831 300.422 646.904ZM298.84 646.946C298.84 646.106 298.705 645.415 298.434 644.874C298.163 644.333 297.762 643.931 297.23 643.67C296.707 643.409 296.073 643.278 295.326 643.278H293.842V650.726H295.06C296.32 650.726 297.263 650.409 297.888 649.774C298.523 649.139 298.84 648.197 298.84 646.946ZM305.398 644.314C306.06 644.314 306.63 644.454 307.106 644.734C307.582 645.005 307.946 645.397 308.198 645.91C308.459 646.423 308.59 647.03 308.59 647.73V648.542H303.522C303.54 649.317 303.741 649.909 304.124 650.32C304.516 650.731 305.062 650.936 305.762 650.936C306.247 650.936 306.676 650.894 307.05 650.81C307.432 650.717 307.824 650.581 308.226 650.404V651.636C307.852 651.804 307.47 651.93 307.078 652.014C306.695 652.098 306.238 652.14 305.706 652.14C304.978 652.14 304.334 651.995 303.774 651.706C303.214 651.417 302.775 650.987 302.458 650.418C302.15 649.839 301.996 649.13 301.996 648.29C301.996 647.441 302.136 646.722 302.416 646.134C302.705 645.546 303.102 645.098 303.606 644.79C304.119 644.473 304.716 644.314 305.398 644.314ZM305.398 645.462C304.866 645.462 304.436 645.635 304.11 645.98C303.792 646.325 303.606 646.815 303.55 647.45H307.106C307.106 647.058 307.045 646.713 306.924 646.414C306.802 646.115 306.616 645.882 306.364 645.714C306.112 645.546 305.79 645.462 305.398 645.462ZM313.157 650.936C313.353 650.936 313.554 650.917 313.759 650.88C313.965 650.843 314.142 650.801 314.291 650.754V651.874C314.133 651.949 313.918 652.009 313.647 652.056C313.377 652.112 313.106 652.14 312.835 652.14C312.425 652.14 312.047 652.07 311.701 651.93C311.365 651.79 311.095 651.547 310.889 651.202C310.684 650.857 310.581 650.376 310.581 649.76V645.588H309.531V644.916L310.637 644.356L311.155 642.76H312.065V644.454H314.221V645.588H312.065V649.732C312.065 650.143 312.163 650.446 312.359 650.642C312.565 650.838 312.831 650.936 313.157 650.936ZM318.727 644.314C319.679 644.314 320.388 644.524 320.855 644.944C321.321 645.355 321.555 646.003 321.555 646.89V652H320.505L320.211 650.95H320.155C319.94 651.221 319.716 651.445 319.483 651.622C319.259 651.799 318.997 651.93 318.699 652.014C318.409 652.098 318.055 652.14 317.635 652.14C317.187 652.14 316.781 652.061 316.417 651.902C316.062 651.734 315.782 651.482 315.577 651.146C315.371 650.801 315.269 650.371 315.269 649.858C315.269 649.093 315.558 648.509 316.137 648.108C316.725 647.707 317.616 647.487 318.811 647.45L320.099 647.408V646.988C320.099 646.428 319.973 646.036 319.721 645.812C319.469 645.588 319.114 645.476 318.657 645.476C318.265 645.476 317.891 645.532 317.537 645.644C317.182 645.756 316.846 645.891 316.529 646.05L316.053 644.972C316.407 644.785 316.813 644.631 317.271 644.51C317.737 644.379 318.223 644.314 318.727 644.314ZM319.077 648.402C318.218 648.439 317.621 648.584 317.285 648.836C316.958 649.079 316.795 649.424 316.795 649.872C316.795 650.264 316.911 650.549 317.145 650.726C317.387 650.903 317.691 650.992 318.055 650.992C318.643 650.992 319.128 650.829 319.511 650.502C319.893 650.175 320.085 649.685 320.085 649.032V648.374L319.077 648.402ZM325.324 644.454V652H323.84V644.454H325.324ZM324.596 641.584C324.82 641.584 325.016 641.649 325.184 641.78C325.352 641.911 325.436 642.13 325.436 642.438C325.436 642.737 325.352 642.956 325.184 643.096C325.016 643.227 324.82 643.292 324.596 643.292C324.353 643.292 324.148 643.227 323.98 643.096C323.821 642.956 323.742 642.737 323.742 642.438C323.742 642.13 323.821 641.911 323.98 641.78C324.148 641.649 324.353 641.584 324.596 641.584ZM329.138 652H327.654V641.36H329.138V652Z" fill="white"/>
<rect x="261.5" y="627.5" width="99" height="38" rx="19" stroke="white"/>
</g>
<path d="M127 235C127 223.954 135.954 215 147 215H475C486.046 215 495 223.954 495 235V471H127V235Z" fill="#2C2C46" fill-opacity="0.5"/>
<rect x="234" y="83" width="154" height="26" rx="13" fill="#212136"/>
<rect x="264" y="123" width="94" height="26" rx="13" fill="#212136"/>
<defs>
<filter id="filter0_d_1_521" x="0" y="0" width="622" height="561" filterUnits="userSpaceOnUse" color-interpolation-filters="sRGB">
<feFlood flood-opacity="0" result="BackgroundImageFix"/>
<feColorMatrix in="SourceAlpha" type="matrix" values="0 0 0 0 0 0 0 0 0 0 0 0 0 0 0 0 0 0 127 0" result="hardAlpha"/>
<feOffset dy="30"/>
<feGaussianBlur stdDeviation="30"/>
<feColorMatrix type="matrix" values="0 0 0 0 0.374756 0 0 0 0 0.0864062 0 0 0 0 0.9875 0 0 0 0.03 0"/>
<feBlend mode="normal" in2="BackgroundImageFix" result="effect1_dropShadow_1_521"/>
<feBlend mode="normal" in="SourceGraphic" in2="effect1_dropShadow_1_521" result="shape"/>
</filter>
<filter id="filter1_d_1_521" x="231" y="612" width="160" height="99" filterUnits="userSpaceOnUse" color-interpolation-filters="sRGB">
<feFlood flood-opacity="0" result="BackgroundImageFix"/>
<feColorMatrix in="SourceAlpha" type="matrix" values="0 0 0 0 0 0 0 0 0 0 0 0 0 0 0 0 0 0 127 0" result="hardAlpha"/>
<feOffset dy="15"/>
<feGaussianBlur stdDeviation="15"/>
<feColorMatrix type="matrix" values="0 0 0 0 0 0 0 0 0 0 0 0 0 0 0 0 0 0 0.1 0"/>
<feBlend mode="normal" in2="BackgroundImageFix" result="effect1_dropShadow_1_521"/>
<feBlend mode="normal" in="SourceGraphic" in2="effect1_dropShadow_1_521" result="shape"/>
</filter>
</defs>
</svg>
