<svg width="119" height="32" viewBox="0 0 119 32" fill="none" xmlns="http://www.w3.org/2000/svg">
<path d="M67.4137 10.7853C67.4137 7.34827 67.4732 4.14827 67.6517 1.1853L58.5482 2.90382V3.73345L59.4407 3.85197C60.0952 3.91123 60.5117 4.14827 60.7497 4.50382C60.9877 4.91864 61.1662 5.51123 61.2852 6.40012C61.4042 8.11864 61.5232 12.0297 61.4637 18.1927C61.4637 24.2964 61.4042 28.1483 61.2852 29.6297C64.5577 30.3409 67.1162 30.6372 69.0202 30.6372C72.5902 30.6372 75.3867 29.6297 77.4097 27.5557C79.4327 25.5409 80.5037 22.6964 80.5037 19.2001C80.5037 16.4149 79.7302 14.1038 78.1832 12.2668C76.6362 10.4297 74.6727 9.54086 72.3522 9.54086C70.8052 9.54086 69.1987 9.95567 67.4137 10.7853ZM67.5922 29.0372C67.4732 27.1409 67.3542 21.452 67.3542 12.1483C67.8897 11.9705 68.6037 11.852 69.4962 11.852C70.9242 11.852 72.0547 12.5631 72.8877 14.0446C73.7207 15.526 74.1372 17.3038 74.1372 19.5557C74.1372 22.3409 73.6612 24.5927 72.7092 26.489C71.7572 28.326 70.5672 29.2742 69.0797 29.2742C68.6037 29.1557 68.1277 29.0964 67.5922 29.0372ZM24.3952 1.7779H0.595215V2.96308L1.84471 3.0816C2.79671 3.25938 3.45121 3.61493 3.86771 4.14827C4.28421 4.74086 4.52221 5.68901 4.58171 6.99271C5.05771 13.3927 5.05771 19.3779 4.58171 24.889C4.46271 26.1927 4.22471 27.1409 3.86771 27.7334C3.45121 28.326 2.79671 28.6816 1.84471 28.8001L0.595215 28.9779V30.1631H15.9462V28.9779L14.3397 28.8594C13.3877 28.7409 12.7332 28.326 12.3167 27.7927C11.9002 27.2001 11.6622 26.252 11.6027 24.9483C11.4242 22.5779 11.3052 19.852 11.3052 16.8297L14.5182 16.889C16.2437 16.9483 17.4337 18.252 18.0287 20.8594H19.2187V11.2001H18.0287C17.4337 13.7483 16.3032 15.052 14.5182 15.1112L11.3052 15.1705C11.3052 9.83716 11.4242 6.04456 11.6027 3.73345H16.3032C19.6352 3.73345 21.8962 5.86678 23.2052 10.1335L24.6332 9.71864L24.3952 1.7779ZM21.5987 20.0297C21.5987 23.1112 22.4912 25.6594 24.2167 27.6742C25.9422 29.689 28.5007 30.6372 31.7137 30.6372C34.9267 30.6372 37.5447 29.6297 39.4487 27.5557C41.3527 25.5409 42.2452 22.9927 42.2452 19.9112C42.2452 16.8297 41.3527 14.2816 39.6272 12.2668C37.9017 10.252 35.3432 9.30382 32.1302 9.30382C28.9172 9.30382 26.2992 10.3112 24.3952 12.3853C22.4912 14.4001 21.5987 16.9483 21.5987 20.0297ZM34.8672 13.2742C35.5812 14.9927 35.8787 17.2446 35.8787 19.9705C35.8787 26.252 34.5697 29.3335 32.0112 29.3335C30.7022 29.3335 29.6907 28.4446 28.9767 26.6668C28.2627 24.889 27.9652 22.6372 27.9652 19.9705C27.9652 13.7483 29.2742 10.6668 31.8327 10.6668C33.1417 10.6075 34.1532 11.4964 34.8672 13.2742ZM85.1447 27.6742C87.1082 29.6297 89.6072 30.6372 92.5822 30.6372C94.4267 30.6372 96.0332 30.2816 97.4612 29.5112C98.8892 28.8001 100.019 27.9112 100.793 26.8446L100.198 26.1334C98.8892 27.1409 97.4017 27.6149 95.6762 27.6149C93.2962 27.6149 91.4517 26.8446 90.2022 25.2446C88.8932 23.6446 88.2982 21.6297 88.4172 19.0223H101.15C101.15 16.1779 100.436 13.8668 98.9487 12.0297C97.4612 10.252 95.3787 9.36308 92.7012 9.36308C89.3692 9.36308 86.8107 10.4297 84.9662 12.5038C83.1217 14.5779 82.2292 17.126 82.2292 20.1483C82.2292 23.2297 83.1812 25.7186 85.1447 27.6742ZM89.5477 12.8001C90.2022 11.3779 91.0352 10.6668 92.1657 10.6668C93.9507 10.6668 94.8432 12.9186 94.8432 17.4816L88.5362 17.6001C88.5957 15.8223 88.8932 14.2223 89.5477 12.8001ZM117.155 10.4297C115.549 9.71864 113.526 9.30382 111.086 9.30382C108.587 9.30382 106.624 9.95567 105.136 11.2001C103.649 12.4446 102.875 13.9853 102.875 15.8223C102.875 17.4223 103.351 18.6668 104.244 19.5557C105.136 20.4446 106.564 21.2149 108.409 21.8668C110.075 22.4594 111.265 23.052 111.86 23.5853C112.455 24.1779 112.812 24.8297 112.812 25.7186C112.812 26.5483 112.514 27.3186 111.86 27.9112C111.265 28.5631 110.432 28.8594 109.361 28.8594C106.743 28.8594 104.779 26.9631 103.411 23.1705L102.399 23.4668L102.637 29.3927C104.779 30.2223 107.159 30.6372 109.777 30.6372C112.514 30.6372 114.597 30.0446 116.144 28.8001C117.691 27.6149 118.465 25.8964 118.465 23.7631C118.465 22.3409 118.107 21.1557 117.334 20.2668C116.56 19.3779 115.311 18.6075 113.526 17.8964C111.562 17.1853 110.194 16.5335 109.48 15.9409C108.766 15.3483 108.409 14.6372 108.409 13.7483C108.409 12.8594 108.647 12.1483 109.182 11.5557C109.718 10.9631 110.372 10.726 111.205 10.726C113.585 10.726 115.311 12.4446 116.382 15.8223L117.393 15.526L117.155 10.4297ZM59.9167 9.89641C59.0837 9.4816 58.1912 9.30382 57.1797 9.30382C56.1682 9.30382 55.1567 9.71864 54.0262 10.5483C52.8957 11.3779 52.0627 12.5038 51.4082 14.0446L51.4677 9.30382L42.4237 11.0816V11.9112L43.3162 11.9705C44.4467 12.089 45.1012 12.9779 45.2202 14.5779C45.5772 18.252 45.5772 22.1631 45.2202 26.3112C45.1012 27.9112 44.4467 28.7409 43.3162 28.9186L42.4237 29.0372V30.1631H55.0377V29.0372L53.4312 28.9186C52.3007 28.8001 51.6462 27.9112 51.5272 26.3112C51.1702 22.8742 51.1107 19.2001 51.4082 15.4075C51.7652 14.8149 52.5387 14.4594 53.7287 14.3409C54.9187 14.2223 56.2872 14.5779 57.7152 15.4075L59.9167 9.89641Z" fill="white" fill-opacity="0.6"/>
</svg>
