<svg width="119" height="32" viewBox="0 0 119 32" fill="none" xmlns="http://www.w3.org/2000/svg">
<g id="Forbes.com Logo">
<path id="Vector" d="M67.4135 10.7853C67.4135 7.34827 67.473 4.14827 67.6515 1.1853L58.548 2.90382V3.73345L59.4405 3.85197C60.095 3.91123 60.5115 4.14827 60.7495 4.50382C60.9875 4.91864 61.166 5.51123 61.285 6.40012C61.404 8.11864 61.523 12.0297 61.4635 18.1927C61.4635 24.2964 61.404 28.1483 61.285 29.6297C64.5575 30.3409 67.116 30.6372 69.02 30.6372C72.59 30.6372 75.3865 29.6297 77.4095 27.5557C79.4325 25.5409 80.5035 22.6964 80.5035 19.2001C80.5035 16.4149 79.73 14.1038 78.183 12.2668C76.636 10.4297 74.6725 9.54086 72.352 9.54086C70.805 9.54086 69.1985 9.95567 67.4135 10.7853ZM67.592 29.0372C67.473 27.1409 67.354 21.452 67.354 12.1483C67.8895 11.9705 68.6035 11.852 69.496 11.852C70.924 11.852 72.0545 12.5631 72.8875 14.0446C73.7205 15.526 74.137 17.3038 74.137 19.5557C74.137 22.3409 73.661 24.5927 72.709 26.489C71.757 28.326 70.567 29.2742 69.0795 29.2742C68.6035 29.1557 68.1275 29.0964 67.592 29.0372ZM24.395 1.7779H0.595001V2.96308L1.8445 3.0816C2.7965 3.25938 3.451 3.61493 3.8675 4.14827C4.284 4.74086 4.522 5.68901 4.5815 6.99271C5.0575 13.3927 5.0575 19.3779 4.5815 24.889C4.4625 26.1927 4.2245 27.1409 3.8675 27.7334C3.451 28.326 2.7965 28.6816 1.8445 28.8001L0.595001 28.9779V30.1631H15.946V28.9779L14.3395 28.8594C13.3875 28.7409 12.733 28.326 12.3165 27.7927C11.9 27.2001 11.662 26.252 11.6025 24.9483C11.424 22.5779 11.305 19.852 11.305 16.8297L14.518 16.889C16.2435 16.9483 17.4335 18.252 18.0285 20.8594H19.2185V11.2001H18.0285C17.4335 13.7483 16.303 15.052 14.518 15.1112L11.305 15.1705C11.305 9.83716 11.424 6.04456 11.6025 3.73345H16.303C19.635 3.73345 21.896 5.86678 23.205 10.1335L24.633 9.71864L24.395 1.7779ZM21.5985 20.0297C21.5985 23.1112 22.491 25.6594 24.2165 27.6742C25.942 29.689 28.5005 30.6372 31.7135 30.6372C34.9265 30.6372 37.5445 29.6297 39.4485 27.5557C41.3525 25.5409 42.245 22.9927 42.245 19.9112C42.245 16.8297 41.3525 14.2816 39.627 12.2668C37.9015 10.252 35.343 9.30382 32.13 9.30382C28.917 9.30382 26.299 10.3112 24.395 12.3853C22.491 14.4001 21.5985 16.9483 21.5985 20.0297ZM34.867 13.2742C35.581 14.9927 35.8785 17.2446 35.8785 19.9705C35.8785 26.252 34.5695 29.3335 32.011 29.3335C30.702 29.3335 29.6905 28.4446 28.9765 26.6668C28.2625 24.889 27.965 22.6372 27.965 19.9705C27.965 13.7483 29.274 10.6668 31.8325 10.6668C33.1415 10.6075 34.153 11.4964 34.867 13.2742ZM85.1445 27.6742C87.108 29.6297 89.607 30.6372 92.582 30.6372C94.4265 30.6372 96.033 30.2816 97.461 29.5112C98.889 28.8001 100.019 27.9112 100.793 26.8446L100.198 26.1334C98.889 27.1409 97.4015 27.6149 95.676 27.6149C93.296 27.6149 91.4515 26.8446 90.202 25.2446C88.893 23.6446 88.298 21.6297 88.417 19.0223H101.15C101.15 16.1779 100.436 13.8668 98.9485 12.0297C97.461 10.252 95.3785 9.36308 92.701 9.36308C89.369 9.36308 86.8105 10.4297 84.966 12.5038C83.1215 14.5779 82.229 17.126 82.229 20.1483C82.229 23.2297 83.181 25.7186 85.1445 27.6742ZM89.5475 12.8001C90.202 11.3779 91.035 10.6668 92.1655 10.6668C93.9505 10.6668 94.843 12.9186 94.843 17.4816L88.536 17.6001C88.5955 15.8223 88.893 14.2223 89.5475 12.8001ZM117.155 10.4297C115.549 9.71864 113.526 9.30382 111.086 9.30382C108.587 9.30382 106.624 9.95567 105.136 11.2001C103.649 12.4446 102.875 13.9853 102.875 15.8223C102.875 17.4223 103.351 18.6668 104.244 19.5557C105.136 20.4446 106.564 21.2149 108.409 21.8668C110.075 22.4594 111.265 23.052 111.86 23.5853C112.455 24.1779 112.812 24.8297 112.812 25.7186C112.812 26.5483 112.514 27.3186 111.86 27.9112C111.265 28.5631 110.432 28.8594 109.361 28.8594C106.743 28.8594 104.779 26.9631 103.411 23.1705L102.399 23.4668L102.637 29.3927C104.779 30.2223 107.159 30.6372 109.777 30.6372C112.514 30.6372 114.597 30.0446 116.144 28.8001C117.691 27.6149 118.465 25.8964 118.465 23.7631C118.465 22.3409 118.107 21.1557 117.334 20.2668C116.56 19.3779 115.311 18.6075 113.526 17.8964C111.562 17.1853 110.194 16.5335 109.48 15.9409C108.766 15.3483 108.409 14.6372 108.409 13.7483C108.409 12.8594 108.647 12.1483 109.182 11.5557C109.718 10.9631 110.372 10.726 111.205 10.726C113.585 10.726 115.311 12.4446 116.382 15.8223L117.393 15.526L117.155 10.4297ZM59.9165 9.89641C59.0835 9.4816 58.191 9.30382 57.1795 9.30382C56.168 9.30382 55.1565 9.71864 54.026 10.5483C52.8955 11.3779 52.0625 12.5038 51.408 14.0446L51.4675 9.30382L42.4235 11.0816V11.9112L43.316 11.9705C44.4465 12.089 45.101 12.9779 45.22 14.5779C45.577 18.252 45.577 22.1631 45.22 26.3112C45.101 27.9112 44.4465 28.7409 43.316 28.9186L42.4235 29.0372V30.1631H55.0375V29.0372L53.431 28.9186C52.3005 28.8001 51.646 27.9112 51.527 26.3112C51.17 22.8742 51.1105 19.2001 51.408 15.4075C51.765 14.8149 52.5385 14.4594 53.7285 14.3409C54.9185 14.2223 56.287 14.5779 57.715 15.4075L59.9165 9.89641Z" fill="white" fill-opacity="0.6"/>
</g>
</svg>
