<svg width="601" height="525" viewBox="0 0 601 525" fill="none" xmlns="http://www.w3.org/2000/svg">
<g clip-path="url(#clip0_35_2)">
<path d="M127 0H125V525H127V0Z" fill="url(#paint0_linear_35_2)"/>
<path d="M76 0H74V525H76V0Z" fill="url(#paint1_linear_35_2)"/>
<path d="M177 0H175V525H177V0Z" fill="url(#paint2_linear_35_2)"/>
<path d="M227 0H225V525H227V0Z" fill="url(#paint3_linear_35_2)"/>
<path d="M277 0H275V525H277V0Z" fill="url(#paint4_linear_35_2)"/>
<path d="M327 0H325V525H327V0Z" fill="url(#paint5_linear_35_2)"/>
<path d="M377 0H375V525H377V0Z" fill="url(#paint6_linear_35_2)"/>
<path d="M427 0H425V525H427V0Z" fill="url(#paint7_linear_35_2)"/>
<path d="M477 0H475V525H477V0Z" fill="url(#paint8_linear_35_2)"/>
<path d="M527 0H525V525H527V0Z" fill="url(#paint9_linear_35_2)"/>
<path d="M601 89V87L0 87V89L601 89Z" fill="url(#paint10_linear_35_2)"/>
<path d="M601 38V36L0 36V38L601 38Z" fill="url(#paint11_linear_35_2)"/>
<path d="M601 139V137L0 137V139L601 139Z" fill="url(#paint12_linear_35_2)"/>
<path d="M601 189V187L0 187V189L601 189Z" fill="url(#paint13_linear_35_2)"/>
<path d="M601 239V237L0 237V239L601 239Z" fill="url(#paint14_linear_35_2)"/>
<path d="M601 289V287L0 287V289L601 289Z" fill="url(#paint15_linear_35_2)"/>
<path d="M601 339V337L0 337V339L601 339Z" fill="url(#paint16_linear_35_2)"/>
<path d="M601 389V387L0 387V389L601 389Z" fill="url(#paint17_linear_35_2)"/>
<path d="M601 439V437L0 437V439L601 439Z" fill="url(#paint18_linear_35_2)"/>
<path d="M601 489V487L0 487V489L601 489Z" fill="url(#paint19_linear_35_2)"/>
<path d="M264.004 58H91.002C89.3451 58 88.002 59.3431 88.002 61V234.002C88.002 235.659 89.3451 237.002 91.002 237.002H264.004C265.661 237.002 267.004 235.659 267.004 234.002V61C267.004 59.3431 265.661 58 264.004 58Z" fill="white" fill-opacity="0.05"/>
<path d="M172.084 79.7705H111.966C110.309 79.7705 108.966 81.1137 108.966 82.7705V88.8652C108.966 90.5221 110.309 91.8652 111.966 91.8652H172.084C173.741 91.8652 175.084 90.5221 175.084 88.8652V82.7705C175.084 81.1137 173.741 79.7705 172.084 79.7705Z" fill="white" fill-opacity="0.05"/>
<path d="M127.528 107.185H111.966C110.309 107.185 108.966 108.528 108.966 110.185V116.28C108.966 117.937 110.309 119.28 111.966 119.28H127.528C129.185 119.28 130.528 117.937 130.528 116.28V110.185C130.528 108.528 129.185 107.185 127.528 107.185Z" fill="white" fill-opacity="0.05"/>
<path d="M127.528 131.375H111.966C110.309 131.375 108.966 132.718 108.966 134.375V140.47C108.966 142.127 110.309 143.47 111.966 143.47H127.528C129.185 143.47 130.528 142.127 130.528 140.47V134.375C130.528 132.718 129.185 131.375 127.528 131.375Z" fill="white" fill-opacity="0.05"/>
<path d="M127.528 155.564H111.966C110.309 155.564 108.966 156.907 108.966 158.564V164.659C108.966 166.316 110.309 167.659 111.966 167.659H127.528C129.185 167.659 130.528 166.316 130.528 164.659V158.564C130.528 156.907 129.185 155.564 127.528 155.564Z" fill="white" fill-opacity="0.05"/>
<path d="M127.528 179.754H111.966C110.309 179.754 108.966 181.097 108.966 182.754V188.849C108.966 190.506 110.309 191.849 111.966 191.849H127.528C129.185 191.849 130.528 190.506 130.528 188.849V182.754C130.528 181.097 129.185 179.754 127.528 179.754Z" fill="white" fill-opacity="0.05"/>
<path d="M127.528 203.943H111.966C110.309 203.943 108.966 205.286 108.966 206.943V213.038C108.966 214.695 110.309 216.038 111.966 216.038H127.528C129.185 216.038 130.528 214.695 130.528 213.038V206.943C130.528 205.286 129.185 203.943 127.528 203.943Z" fill="white" fill-opacity="0.05"/>
<path d="M191.445 107.185H148.93C147.273 107.185 145.93 108.528 145.93 110.185V116.28C145.93 117.937 147.273 119.28 148.93 119.28H191.445C193.102 119.28 194.445 117.937 194.445 116.28V110.185C194.445 108.528 193.102 107.185 191.445 107.185Z" fill="white" fill-opacity="0.05"/>
<path d="M197.887 131.375H149.057C147.4 131.375 146.057 132.718 146.057 134.375V140.47C146.057 142.127 147.4 143.47 149.057 143.47H197.887C199.543 143.47 200.887 142.127 200.887 140.47V134.375C200.887 132.718 199.543 131.375 197.887 131.375Z" fill="white" fill-opacity="0.05"/>
<path d="M178.535 155.564H149.057C147.4 155.564 146.057 156.907 146.057 158.564V164.659C146.057 166.316 147.4 167.659 149.057 167.659H178.535C180.192 167.659 181.535 166.316 181.535 164.659V158.564C181.535 156.907 180.192 155.564 178.535 155.564Z" fill="white" fill-opacity="0.05"/>
<path d="M197.887 179.754H149.057C147.4 179.754 146.057 181.097 146.057 182.754V188.849C146.057 190.506 147.4 191.849 149.057 191.849H197.887C199.543 191.849 200.887 190.506 200.887 188.849V182.754C200.887 181.097 199.543 179.754 197.887 179.754Z" fill="white" fill-opacity="0.05"/>
<path d="M191.445 203.943H148.93C147.273 203.943 145.93 205.286 145.93 206.943V213.038C145.93 214.695 147.273 216.038 148.93 216.038H191.445C193.102 216.038 194.445 214.695 194.445 213.038V206.943C194.445 205.286 193.102 203.943 191.445 203.943Z" fill="white" fill-opacity="0.05"/>
<path d="M243.04 107.185H212.846C211.189 107.185 209.846 108.528 209.846 110.185V116.28C209.846 117.937 211.189 119.28 212.846 119.28H243.04C244.697 119.28 246.04 117.937 246.04 116.28V110.185C246.04 108.528 244.697 107.185 243.04 107.185Z" fill="white" fill-opacity="0.05"/>
<path d="M243.04 131.375H219.206C217.549 131.375 216.206 132.718 216.206 134.375V140.47C216.206 142.127 217.549 143.47 219.206 143.47H243.04C244.697 143.47 246.04 142.127 246.04 140.47V134.375C246.04 132.718 244.697 131.375 243.04 131.375Z" fill="white" fill-opacity="0.05"/>
<path d="M243.04 155.564H199.855C198.198 155.564 196.855 156.907 196.855 158.564V164.659C196.855 166.316 198.198 167.659 199.855 167.659H243.04C244.697 167.659 246.04 166.316 246.04 164.659V158.564C246.04 156.907 244.697 155.564 243.04 155.564Z" fill="white" fill-opacity="0.05"/>
<path d="M243.04 179.754H219.206C217.549 179.754 216.206 181.097 216.206 182.754V188.849C216.206 190.506 217.549 191.849 219.206 191.849H243.04C244.697 191.849 246.04 190.506 246.04 188.849V182.754C246.04 181.097 244.697 179.754 243.04 179.754Z" fill="white" fill-opacity="0.05"/>
<path d="M243.04 203.943H212.846C211.189 203.943 209.846 205.286 209.846 206.943V213.038C209.846 214.695 211.189 216.038 212.846 216.038H243.04C244.697 216.038 246.04 214.695 246.04 213.038V206.943C246.04 205.286 244.697 203.943 243.04 203.943Z" fill="white" fill-opacity="0.05"/>
<path d="M280.937 292.638H107.935C106.278 292.638 104.935 293.981 104.935 295.638V441.225C104.935 442.882 106.278 444.225 107.935 444.225H280.937C282.594 444.225 283.937 442.882 283.937 441.225V295.638C283.937 293.981 282.594 292.638 280.937 292.638Z" fill="white" fill-opacity="0.05"/>
<path d="M212.4 314.409H128.899C127.242 314.409 125.899 315.752 125.899 317.409V323.504C125.899 325.16 127.242 326.504 128.899 326.504H212.4C214.057 326.504 215.4 325.16 215.4 323.504V317.409C215.4 315.752 214.057 314.409 212.4 314.409Z" fill="white" fill-opacity="0.05"/>
<path d="M144.461 341.823H128.899C127.242 341.823 125.899 343.166 125.899 344.823V350.918C125.899 352.575 127.242 353.918 128.899 353.918H144.461C146.118 353.918 147.461 352.575 147.461 350.918V344.823C147.461 343.166 146.118 341.823 144.461 341.823Z" fill="white" fill-opacity="0.05"/>
<path d="M144.461 366.013H128.899C127.242 366.013 125.899 367.356 125.899 369.013V375.108C125.899 376.764 127.242 378.108 128.899 378.108H144.461C146.118 378.108 147.461 376.764 147.461 375.108V369.013C147.461 367.356 146.118 366.013 144.461 366.013Z" fill="white" fill-opacity="0.05"/>
<path d="M144.461 390.202H128.899C127.242 390.202 125.899 391.545 125.899 393.202V399.297C125.899 400.954 127.242 402.297 128.899 402.297H144.461C146.118 402.297 147.461 400.954 147.461 399.297V393.202C147.461 391.545 146.118 390.202 144.461 390.202Z" fill="white" fill-opacity="0.05"/>
<path d="M144.461 414.392H128.899C127.242 414.392 125.899 415.735 125.899 417.392V423.487C125.899 425.144 127.242 426.487 128.899 426.487H144.461C146.118 426.487 147.461 425.144 147.461 423.487V417.392C147.461 415.735 146.118 414.392 144.461 414.392Z" fill="white" fill-opacity="0.05"/>
<path d="M208.378 341.823H165.863C164.206 341.823 162.863 343.166 162.863 344.823V350.918C162.863 352.575 164.206 353.918 165.863 353.918H208.378C210.035 353.918 211.378 352.575 211.378 350.918V344.823C211.378 343.166 210.035 341.823 208.378 341.823Z" fill="white" fill-opacity="0.05"/>
<path d="M214.82 366.013H165.99C164.333 366.013 162.99 367.356 162.99 369.013V375.108C162.99 376.764 164.333 378.108 165.99 378.108H214.82C216.477 378.108 217.82 376.764 217.82 375.108V369.013C217.82 367.356 216.477 366.013 214.82 366.013Z" fill="white" fill-opacity="0.05"/>
<path d="M195.468 390.202H165.99C164.333 390.202 162.99 391.545 162.99 393.202V399.297C162.99 400.954 164.333 402.297 165.99 402.297H195.468C197.125 402.297 198.468 400.954 198.468 399.297V393.202C198.468 391.545 197.125 390.202 195.468 390.202Z" fill="white" fill-opacity="0.05"/>
<path d="M214.82 414.392H165.99C164.333 414.392 162.99 415.735 162.99 417.392V423.487C162.99 425.144 164.333 426.487 165.99 426.487H214.82C216.477 426.487 217.82 425.144 217.82 423.487V417.392C217.82 415.735 216.477 414.392 214.82 414.392Z" fill="white" fill-opacity="0.05"/>
<path d="M259.972 341.823H229.779C228.122 341.823 226.779 343.166 226.779 344.823V350.918C226.779 352.575 228.122 353.918 229.779 353.918H259.972C261.629 353.918 262.972 352.575 262.972 350.918V344.823C262.972 343.166 261.629 341.823 259.972 341.823Z" fill="white" fill-opacity="0.05"/>
<path d="M259.973 366.013H236.139C234.482 366.013 233.139 367.356 233.139 369.013V375.108C233.139 376.764 234.482 378.108 236.139 378.108H259.973C261.63 378.108 262.973 376.764 262.973 375.108V369.013C262.973 367.356 261.63 366.013 259.973 366.013Z" fill="white" fill-opacity="0.05"/>
<path d="M259.972 390.202H216.787C215.13 390.202 213.787 391.545 213.787 393.202V399.297C213.787 400.954 215.13 402.297 216.787 402.297H259.972C261.629 402.297 262.972 400.954 262.972 399.297V393.202C262.972 391.545 261.629 390.202 259.972 390.202Z" fill="white" fill-opacity="0.05"/>
<path d="M259.973 414.392H236.139C234.482 414.392 233.139 415.735 233.139 417.392V423.487C233.139 425.144 234.482 426.487 236.139 426.487H259.973C261.63 426.487 262.973 425.144 262.973 423.487V417.392C262.973 415.735 261.63 414.392 259.973 414.392Z" fill="white" fill-opacity="0.05"/>
<path d="M492.998 169H319.996C318.339 169 316.996 170.343 316.996 172V392.575C316.996 394.232 318.339 395.575 319.996 395.575H492.998C494.655 395.575 495.998 394.232 495.998 392.575V172C495.998 170.343 494.655 169 492.998 169Z" fill="white" fill-opacity="0.05"/>
<path d="M380.114 190.771H340.96C339.303 190.771 337.96 192.114 337.96 193.771V199.866C337.96 201.523 339.303 202.866 340.96 202.866H380.114C381.771 202.866 383.114 201.523 383.114 199.866V193.771C383.114 192.114 381.771 190.771 380.114 190.771Z" fill="white" fill-opacity="0.05"/>
<path d="M356.522 266.564H340.96C339.303 266.564 337.96 267.907 337.96 269.564V275.659C337.96 277.316 339.303 278.659 340.96 278.659H356.522C358.179 278.659 359.522 277.316 359.522 275.659V269.564C359.522 267.907 358.179 266.564 356.522 266.564Z" fill="white" fill-opacity="0.05"/>
<path d="M420.439 266.564H377.924C376.267 266.564 374.924 267.907 374.924 269.564V275.659C374.924 277.316 376.267 278.659 377.924 278.659H420.439C422.096 278.659 423.439 277.316 423.439 275.659V269.564C423.439 267.907 422.096 266.564 420.439 266.564Z" fill="white" fill-opacity="0.05"/>
<path d="M472.033 266.564H441.84C440.183 266.564 438.84 267.907 438.84 269.564V275.659C438.84 277.316 440.183 278.659 441.84 278.659H472.033C473.69 278.659 475.033 277.316 475.033 275.659V269.564C475.033 267.907 473.69 266.564 472.033 266.564Z" fill="white" fill-opacity="0.05"/>
<path d="M356.522 290.754H340.96C339.303 290.754 337.96 292.097 337.96 293.754V299.849C337.96 301.506 339.303 302.849 340.96 302.849H356.522C358.179 302.849 359.522 301.506 359.522 299.849V293.754C359.522 292.097 358.179 290.754 356.522 290.754Z" fill="white" fill-opacity="0.05"/>
<path d="M426.88 290.754H378.051C376.394 290.754 375.051 292.097 375.051 293.754V299.849C375.051 301.506 376.394 302.849 378.051 302.849H426.88C428.537 302.849 429.88 301.506 429.88 299.849V293.754C429.88 292.097 428.537 290.754 426.88 290.754Z" fill="white" fill-opacity="0.05"/>
<path d="M472.034 290.754H448.2C446.543 290.754 445.2 292.097 445.2 293.754V299.849C445.2 301.506 446.543 302.849 448.2 302.849H472.034C473.691 302.849 475.034 301.506 475.034 299.849V293.754C475.034 292.097 473.691 290.754 472.034 290.754Z" fill="white" fill-opacity="0.05"/>
<path d="M356.522 339.133H340.96C339.303 339.133 337.96 340.476 337.96 342.133V348.228C337.96 349.885 339.303 351.228 340.96 351.228H356.522C358.179 351.228 359.522 349.885 359.522 348.228V342.133C359.522 340.476 358.179 339.133 356.522 339.133Z" fill="white" fill-opacity="0.05"/>
<path d="M426.88 339.133H378.051C376.394 339.133 375.051 340.476 375.051 342.133V348.228C375.051 349.885 376.394 351.228 378.051 351.228H426.88C428.537 351.228 429.88 349.885 429.88 348.228V342.133C429.88 340.476 428.537 339.133 426.88 339.133Z" fill="white" fill-opacity="0.05"/>
<path d="M472.034 339.133H448.2C446.543 339.133 445.2 340.476 445.2 342.133V348.228C445.2 349.885 446.543 351.228 448.2 351.228H472.034C473.691 351.228 475.034 349.885 475.034 348.228V342.133C475.034 340.476 473.691 339.133 472.034 339.133Z" fill="white" fill-opacity="0.05"/>
<path d="M356.522 314.943H340.96C339.303 314.943 337.96 316.286 337.96 317.943V324.038C337.96 325.695 339.303 327.038 340.96 327.038H356.522C358.179 327.038 359.522 325.695 359.522 324.038V317.943C359.522 316.286 358.179 314.943 356.522 314.943Z" fill="white" fill-opacity="0.05"/>
<path d="M407.529 314.943H378.051C376.394 314.943 375.051 316.286 375.051 317.943V324.038C375.051 325.695 376.394 327.038 378.051 327.038H407.529C409.186 327.038 410.529 325.695 410.529 324.038V317.943C410.529 316.286 409.186 314.943 407.529 314.943Z" fill="white" fill-opacity="0.05"/>
<path d="M472.033 314.943H428.848C427.191 314.943 425.848 316.286 425.848 317.943V324.038C425.848 325.695 427.191 327.038 428.848 327.038H472.033C473.69 327.038 475.033 325.695 475.033 324.038V317.943C475.033 316.286 473.69 314.943 472.033 314.943Z" fill="white" fill-opacity="0.05"/>
<path d="M356.522 242.375H340.96C339.303 242.375 337.96 243.718 337.96 245.375V251.47C337.96 253.127 339.303 254.47 340.96 254.47H356.522C358.179 254.47 359.522 253.127 359.522 251.47V245.375C359.522 243.718 358.179 242.375 356.522 242.375Z" fill="white" fill-opacity="0.05"/>
<path d="M426.88 242.375H378.051C376.394 242.375 375.051 243.718 375.051 245.375V251.47C375.051 253.127 376.394 254.47 378.051 254.47H426.88C428.537 254.47 429.88 253.127 429.88 251.47V245.375C429.88 243.718 428.537 242.375 426.88 242.375Z" fill="white" fill-opacity="0.05"/>
<path d="M472.034 242.375H448.2C446.543 242.375 445.2 243.718 445.2 245.375V251.47C445.2 253.127 446.543 254.47 448.2 254.47H472.034C473.691 254.47 475.034 253.127 475.034 251.47V245.375C475.034 243.718 473.691 242.375 472.034 242.375Z" fill="white" fill-opacity="0.05"/>
<path d="M356.522 218.185H340.96C339.303 218.185 337.96 219.528 337.96 221.185V227.28C337.96 228.937 339.303 230.28 340.96 230.28H356.522C358.179 230.28 359.522 228.937 359.522 227.28V221.185C359.522 219.528 358.179 218.185 356.522 218.185Z" fill="white" fill-opacity="0.05"/>
<path d="M420.439 218.185H377.924C376.267 218.185 374.924 219.528 374.924 221.185V227.28C374.924 228.937 376.267 230.28 377.924 230.28H420.439C422.096 230.28 423.439 228.937 423.439 227.28V221.185C423.439 219.528 422.096 218.185 420.439 218.185Z" fill="white" fill-opacity="0.05"/>
<path d="M472.033 218.185H441.84C440.183 218.185 438.84 219.528 438.84 221.185V227.28C438.84 228.937 440.183 230.28 441.84 230.28H472.033C473.69 230.28 475.033 228.937 475.033 227.28V221.185C475.033 219.528 473.69 218.185 472.033 218.185Z" fill="white" fill-opacity="0.05"/>
<path d="M356.522 363.322H340.96C339.303 363.322 337.96 364.665 337.96 366.322V372.417C337.96 374.074 339.303 375.417 340.96 375.417H356.522C358.179 375.417 359.522 374.074 359.522 372.417V366.322C359.522 364.665 358.179 363.322 356.522 363.322Z" fill="white" fill-opacity="0.05"/>
<path d="M420.439 363.322H377.924C376.267 363.322 374.924 364.665 374.924 366.322V372.417C374.924 374.074 376.267 375.417 377.924 375.417H420.439C422.096 375.417 423.439 374.074 423.439 372.417V366.322C423.439 364.665 422.096 363.322 420.439 363.322Z" fill="white" fill-opacity="0.05"/>
<path d="M472.033 363.322H441.84C440.183 363.322 438.84 364.665 438.84 366.322V372.417C438.84 374.074 440.183 375.417 441.84 375.417H472.033C473.69 375.417 475.033 374.074 475.033 372.417V366.322C475.033 364.665 473.69 363.322 472.033 363.322Z" fill="white" fill-opacity="0.05"/>
<path d="M267.004 143.001C264.504 143.001 262.504 145.001 262.504 147.501C262.504 150.001 264.504 152.001 267.004 152.001C269.504 152.001 271.504 150.001 271.504 147.501C271.504 145.001 269.504 143.001 267.004 143.001Z" fill="#6016FC"/>
<path d="M271.504 147.501H386.497C397.543 147.501 406.497 156.455 406.497 167.501V169M271.504 147.501C271.504 145.001 269.504 143.001 267.004 143.001C264.504 143.001 262.504 145.001 262.504 147.501C262.504 150.001 264.504 152.001 267.004 152.001C269.504 152.001 271.504 150.001 271.504 147.501Z" stroke="#222234" stroke-width="3"/>
<path d="M283.937 363.932C281.437 363.932 279.437 365.932 279.437 368.432C279.437 370.932 281.437 372.932 283.937 372.932C286.437 372.932 288.437 370.932 288.437 368.432C288.437 365.932 286.437 363.932 283.937 363.932Z" fill="#6016FC"/>
<path d="M288.437 368.432C288.437 365.932 286.437 363.932 283.937 363.932C281.437 363.932 279.437 365.932 279.437 368.432C279.437 370.932 281.437 372.932 283.937 372.932C286.437 372.932 288.437 370.932 288.437 368.432ZM288.437 368.432C295.081 368.432 300.466 363.046 300.466 356.402V298.817C300.466 289.688 307.867 282.287 316.996 282.287" stroke="#222234" stroke-width="3"/>
</g>
<defs>
<linearGradient id="paint0_linear_35_2" x1="126" y1="0" x2="126" y2="525" gradientUnits="userSpaceOnUse">
<stop stop-color="white" stop-opacity="0"/>
<stop offset="0.479167" stop-color="white" stop-opacity="0.02"/>
<stop offset="0.994792" stop-color="white" stop-opacity="0"/>
</linearGradient>
<linearGradient id="paint1_linear_35_2" x1="75" y1="0" x2="75" y2="525" gradientUnits="userSpaceOnUse">
<stop stop-color="white" stop-opacity="0"/>
<stop offset="0.479167" stop-color="white" stop-opacity="0.02"/>
<stop offset="0.994792" stop-color="white" stop-opacity="0"/>
</linearGradient>
<linearGradient id="paint2_linear_35_2" x1="176" y1="0" x2="176" y2="525" gradientUnits="userSpaceOnUse">
<stop stop-color="white" stop-opacity="0"/>
<stop offset="0.479167" stop-color="white" stop-opacity="0.02"/>
<stop offset="0.994792" stop-color="white" stop-opacity="0"/>
</linearGradient>
<linearGradient id="paint3_linear_35_2" x1="226" y1="0" x2="226" y2="525" gradientUnits="userSpaceOnUse">
<stop stop-color="white" stop-opacity="0"/>
<stop offset="0.479167" stop-color="white" stop-opacity="0.02"/>
<stop offset="0.994792" stop-color="white" stop-opacity="0"/>
</linearGradient>
<linearGradient id="paint4_linear_35_2" x1="276" y1="0" x2="276" y2="525" gradientUnits="userSpaceOnUse">
<stop stop-color="white" stop-opacity="0"/>
<stop offset="0.479167" stop-color="white" stop-opacity="0.02"/>
<stop offset="0.994792" stop-color="white" stop-opacity="0"/>
</linearGradient>
<linearGradient id="paint5_linear_35_2" x1="326" y1="0" x2="326" y2="525" gradientUnits="userSpaceOnUse">
<stop stop-color="white" stop-opacity="0"/>
<stop offset="0.479167" stop-color="white" stop-opacity="0.02"/>
<stop offset="0.994792" stop-color="white" stop-opacity="0"/>
</linearGradient>
<linearGradient id="paint6_linear_35_2" x1="376" y1="0" x2="376" y2="525" gradientUnits="userSpaceOnUse">
<stop stop-color="white" stop-opacity="0"/>
<stop offset="0.479167" stop-color="white" stop-opacity="0.02"/>
<stop offset="0.994792" stop-color="white" stop-opacity="0"/>
</linearGradient>
<linearGradient id="paint7_linear_35_2" x1="426" y1="0" x2="426" y2="525" gradientUnits="userSpaceOnUse">
<stop stop-color="white" stop-opacity="0"/>
<stop offset="0.479167" stop-color="white" stop-opacity="0.02"/>
<stop offset="0.994792" stop-color="white" stop-opacity="0"/>
</linearGradient>
<linearGradient id="paint8_linear_35_2" x1="476" y1="0" x2="476" y2="525" gradientUnits="userSpaceOnUse">
<stop stop-color="white" stop-opacity="0"/>
<stop offset="0.479167" stop-color="white" stop-opacity="0.02"/>
<stop offset="0.994792" stop-color="white" stop-opacity="0"/>
</linearGradient>
<linearGradient id="paint9_linear_35_2" x1="526" y1="0" x2="526" y2="525" gradientUnits="userSpaceOnUse">
<stop stop-color="white" stop-opacity="0"/>
<stop offset="0.479167" stop-color="white" stop-opacity="0.02"/>
<stop offset="0.994792" stop-color="white" stop-opacity="0"/>
</linearGradient>
<linearGradient id="paint10_linear_35_2" x1="601" y1="88" x2="0" y2="88" gradientUnits="userSpaceOnUse">
<stop stop-color="white" stop-opacity="0"/>
<stop offset="0.479167" stop-color="white" stop-opacity="0.02"/>
<stop offset="0.994792" stop-color="white" stop-opacity="0"/>
</linearGradient>
<linearGradient id="paint11_linear_35_2" x1="601" y1="37" x2="0" y2="37" gradientUnits="userSpaceOnUse">
<stop stop-color="white" stop-opacity="0"/>
<stop offset="0.479167" stop-color="white" stop-opacity="0.02"/>
<stop offset="0.994792" stop-color="white" stop-opacity="0"/>
</linearGradient>
<linearGradient id="paint12_linear_35_2" x1="601" y1="138" x2="0" y2="138" gradientUnits="userSpaceOnUse">
<stop stop-color="white" stop-opacity="0"/>
<stop offset="0.479167" stop-color="white" stop-opacity="0.02"/>
<stop offset="0.994792" stop-color="white" stop-opacity="0"/>
</linearGradient>
<linearGradient id="paint13_linear_35_2" x1="601" y1="188" x2="0" y2="188" gradientUnits="userSpaceOnUse">
<stop stop-color="white" stop-opacity="0"/>
<stop offset="0.479167" stop-color="white" stop-opacity="0.02"/>
<stop offset="0.994792" stop-color="white" stop-opacity="0"/>
</linearGradient>
<linearGradient id="paint14_linear_35_2" x1="601" y1="238" x2="0" y2="238" gradientUnits="userSpaceOnUse">
<stop stop-color="white" stop-opacity="0"/>
<stop offset="0.479167" stop-color="white" stop-opacity="0.02"/>
<stop offset="0.994792" stop-color="white" stop-opacity="0"/>
</linearGradient>
<linearGradient id="paint15_linear_35_2" x1="601" y1="288" x2="0" y2="288" gradientUnits="userSpaceOnUse">
<stop stop-color="white" stop-opacity="0"/>
<stop offset="0.479167" stop-color="white" stop-opacity="0.02"/>
<stop offset="0.994792" stop-color="white" stop-opacity="0"/>
</linearGradient>
<linearGradient id="paint16_linear_35_2" x1="601" y1="338" x2="0" y2="338" gradientUnits="userSpaceOnUse">
<stop stop-color="white" stop-opacity="0"/>
<stop offset="0.479167" stop-color="white" stop-opacity="0.02"/>
<stop offset="0.994792" stop-color="white" stop-opacity="0"/>
</linearGradient>
<linearGradient id="paint17_linear_35_2" x1="601" y1="388" x2="0" y2="388" gradientUnits="userSpaceOnUse">
<stop stop-color="white" stop-opacity="0"/>
<stop offset="0.479167" stop-color="white" stop-opacity="0.02"/>
<stop offset="0.994792" stop-color="white" stop-opacity="0"/>
</linearGradient>
<linearGradient id="paint18_linear_35_2" x1="601" y1="438" x2="0" y2="438" gradientUnits="userSpaceOnUse">
<stop stop-color="white" stop-opacity="0"/>
<stop offset="0.479167" stop-color="white" stop-opacity="0.02"/>
<stop offset="0.994792" stop-color="white" stop-opacity="0"/>
</linearGradient>
<linearGradient id="paint19_linear_35_2" x1="601" y1="488" x2="0" y2="488" gradientUnits="userSpaceOnUse">
<stop stop-color="white" stop-opacity="0"/>
<stop offset="0.479167" stop-color="white" stop-opacity="0.02"/>
<stop offset="0.994792" stop-color="white" stop-opacity="0"/>
</linearGradient>
<clipPath id="clip0_35_2">
<rect width="601" height="525" fill="white"/>
</clipPath>
</defs>
</svg>
