<svg width="132" height="31" viewBox="0 0 132 31" fill="none" xmlns="http://www.w3.org/2000/svg">
<path d="M23.75 14.75H6.25M23.75 14.75C24.413 14.75 25.0489 15.0134 25.5178 15.4822C25.9866 15.9511 26.25 16.587 26.25 17.25V24.75C26.25 25.413 25.9866 26.0489 25.5178 26.5178C25.0489 26.9866 24.413 27.25 23.75 27.25H6.25C5.58696 27.25 4.95107 26.9866 4.48223 26.5178C4.01339 26.0489 3.75 25.413 3.75 24.75V17.25C3.75 16.587 4.01339 15.9511 4.48223 15.4822C4.95107 15.0134 5.58696 14.75 6.25 14.75M23.75 14.75V12.25C23.75 11.587 23.4866 10.9511 23.0178 10.4822C22.5489 10.0134 21.913 9.75 21.25 9.75M23.75 14.75L21.25 9.75M6.25 14.75V12.25C6.25 11.587 6.51339 10.9511 6.98223 10.4822C7.45107 10.0134 8.08696 9.75 8.75 9.75M6.25 14.75L8.75 9.75M21.25 9.75V7.25C21.25 6.58696 20.9866 5.95107 20.5178 5.48223C20.0489 5.01339 19.413 4.75 18.75 4.75H11.25C10.587 4.75 9.95107 5.01339 9.48223 5.48223C9.01339 5.95107 8.75 6.58696 8.75 7.25V9.75M21.25 9.75H8.75" stroke="white" stroke-width="2" stroke-linecap="round" stroke-linejoin="round"/>
<path d="M43.408 24.288C41.712 24.288 40.256 23.928 39.04 23.208C37.824 22.472 36.888 21.456 36.232 20.16C35.576 18.848 35.248 17.336 35.248 15.624C35.248 13.912 35.576 12.4 36.232 11.088C36.888 9.776 37.824 8.752 39.04 8.016C40.256 7.28 41.712 6.912 43.408 6.912C45.424 6.912 47.072 7.416 48.352 8.424C49.648 9.416 50.456 10.816 50.776 12.624H47.392C47.184 11.712 46.736 11 46.048 10.488C45.376 9.96 44.48 9.696 43.36 9.696C41.808 9.696 40.592 10.224 39.712 11.28C38.832 12.336 38.392 13.784 38.392 15.624C38.392 17.464 38.832 18.912 39.712 19.968C40.592 21.008 41.808 21.528 43.36 21.528C44.48 21.528 45.376 21.288 46.048 20.808C46.736 20.312 47.184 19.632 47.392 18.768H50.776C50.456 20.496 49.648 21.848 48.352 22.824C47.072 23.8 45.424 24.288 43.408 24.288ZM59.1353 24.288C57.9833 24.288 56.9433 24.024 56.0153 23.496C55.1033 22.968 54.3753 22.24 53.8313 21.312C53.3033 20.368 53.0393 19.28 53.0393 18.048C53.0393 16.816 53.3113 15.736 53.8553 14.808C54.3993 13.864 55.1273 13.128 56.0393 12.6C56.9673 12.072 58.0073 11.808 59.1593 11.808C60.2953 11.808 61.3193 12.072 62.2313 12.6C63.1593 13.128 63.8873 13.864 64.4153 14.808C64.9593 15.736 65.2313 16.816 65.2313 18.048C65.2313 19.28 64.9593 20.368 64.4153 21.312C63.8873 22.24 63.1593 22.968 62.2313 23.496C61.3033 24.024 60.2713 24.288 59.1353 24.288ZM59.1353 21.624C59.9353 21.624 60.6313 21.328 61.2233 20.736C61.8153 20.128 62.1113 19.232 62.1113 18.048C62.1113 16.864 61.8153 15.976 61.2233 15.384C60.6313 14.776 59.9433 14.472 59.1593 14.472C58.3433 14.472 57.6393 14.776 57.0473 15.384C56.4713 15.976 56.1833 16.864 56.1833 18.048C56.1833 19.232 56.4713 20.128 57.0473 20.736C57.6393 21.328 58.3353 21.624 59.1353 21.624ZM67.978 24V6.72H71.05V24H67.978ZM74.1889 24V6.72H77.2609V24H74.1889ZM86.1118 24.288C84.9598 24.288 83.9198 24.024 82.9918 23.496C82.0798 22.968 81.3518 22.24 80.8078 21.312C80.2798 20.368 80.0158 19.28 80.0158 18.048C80.0158 16.816 80.2878 15.736 80.8318 14.808C81.3758 13.864 82.1038 13.128 83.0158 12.6C83.9438 12.072 84.9838 11.808 86.1358 11.808C87.2718 11.808 88.2958 12.072 89.2078 12.6C90.1358 13.128 90.8638 13.864 91.3918 14.808C91.9358 15.736 92.2078 16.816 92.2078 18.048C92.2078 19.28 91.9358 20.368 91.3918 21.312C90.8638 22.24 90.1358 22.968 89.2078 23.496C88.2798 24.024 87.2478 24.288 86.1118 24.288ZM86.1118 21.624C86.9118 21.624 87.6078 21.328 88.1998 20.736C88.7918 20.128 89.0878 19.232 89.0878 18.048C89.0878 16.864 88.7918 15.976 88.1998 15.384C87.6078 14.776 86.9198 14.472 86.1358 14.472C85.3198 14.472 84.6158 14.776 84.0238 15.384C83.4478 15.976 83.1598 16.864 83.1598 18.048C83.1598 19.232 83.4478 20.128 84.0238 20.736C84.6158 21.328 85.3118 21.624 86.1118 21.624ZM99.8745 24.288C98.8185 24.288 97.8905 24.12 97.0905 23.784C96.2905 23.432 95.6505 22.952 95.1705 22.344C94.6905 21.736 94.4025 21.032 94.3065 20.232H97.4025C97.4985 20.696 97.7545 21.096 98.1705 21.432C98.6025 21.752 99.1545 21.912 99.8265 21.912C100.499 21.912 100.987 21.776 101.291 21.504C101.611 21.232 101.771 20.92 101.771 20.568C101.771 20.056 101.547 19.712 101.099 19.536C100.651 19.344 100.027 19.16 99.2265 18.984C98.7145 18.872 98.1945 18.736 97.6665 18.576C97.1385 18.416 96.6505 18.216 96.2025 17.976C95.7705 17.72 95.4185 17.4 95.1465 17.016C94.8745 16.616 94.7385 16.128 94.7385 15.552C94.7385 14.496 95.1545 13.608 95.9865 12.888C96.8345 12.168 98.0185 11.808 99.5385 11.808C100.947 11.808 102.067 12.136 102.899 12.792C103.747 13.448 104.251 14.352 104.411 15.504H101.507C101.331 14.624 100.667 14.184 99.5145 14.184C98.9385 14.184 98.4905 14.296 98.1705 14.52C97.8665 14.744 97.7145 15.024 97.7145 15.36C97.7145 15.712 97.9465 15.992 98.4105 16.2C98.8745 16.408 99.4905 16.6 100.259 16.776C101.091 16.968 101.851 17.184 102.539 17.424C103.243 17.648 103.803 17.992 104.219 18.456C104.635 18.904 104.843 19.552 104.843 20.4C104.859 21.136 104.667 21.8 104.267 22.392C103.867 22.984 103.291 23.448 102.539 23.784C101.787 24.12 100.899 24.288 99.8745 24.288ZM111.668 24.288C110.644 24.288 109.804 24.128 109.148 23.808C108.492 23.472 108.004 23.032 107.684 22.488C107.364 21.944 107.204 21.344 107.204 20.688C107.204 19.584 107.636 18.688 108.5 18C109.364 17.312 110.66 16.968 112.388 16.968H115.412V16.68C115.412 15.864 115.18 15.264 114.716 14.88C114.252 14.496 113.676 14.304 112.988 14.304C112.364 14.304 111.82 14.456 111.356 14.76C110.892 15.048 110.604 15.48 110.492 16.056H107.492C107.572 15.192 107.86 14.44 108.356 13.8C108.868 13.16 109.524 12.672 110.324 12.336C111.124 11.984 112.02 11.808 113.012 11.808C114.708 11.808 116.044 12.232 117.02 13.08C117.996 13.928 118.484 15.128 118.484 16.68V24H115.868L115.58 22.08C115.228 22.72 114.732 23.248 114.092 23.664C113.468 24.08 112.66 24.288 111.668 24.288ZM112.364 21.888C113.244 21.888 113.924 21.6 114.404 21.024C114.9 20.448 115.212 19.736 115.34 18.888H112.724C111.908 18.888 111.324 19.04 110.972 19.344C110.62 19.632 110.444 19.992 110.444 20.424C110.444 20.888 110.62 21.248 110.972 21.504C111.324 21.76 111.788 21.888 112.364 21.888ZM121.415 24V6.72H124.487V24H121.415ZM128.946 24.168C128.386 24.168 127.922 23.992 127.554 23.64C127.202 23.288 127.026 22.864 127.026 22.368C127.026 21.856 127.202 21.424 127.554 21.072C127.922 20.72 128.386 20.544 128.946 20.544C129.506 20.544 129.962 20.72 130.314 21.072C130.682 21.424 130.866 21.856 130.866 22.368C130.866 22.864 130.682 23.288 130.314 23.64C129.962 23.992 129.506 24.168 128.946 24.168Z" fill="white"/>
</svg>
