<svg width="119" height="25" viewBox="0 0 119 25" fill="none" xmlns="http://www.w3.org/2000/svg">
<g id="Microsoft Logo" clip-path="url(#clip0_119_184)">
<path id="Vector" d="M42.0046 14.3991L41.2954 16.3759H41.2363C41.1181 15.9301 40.9013 15.2519 40.5467 14.4379L36.7442 5.03867H33.0205V20.0193H35.4833V10.7751C35.4833 10.1937 35.4833 9.5348 35.4636 8.72085C35.4439 8.31387 35.4045 8.00379 35.3848 7.77123H35.4439C35.5621 8.35263 35.7 8.77898 35.7985 9.0503L40.3694 19.9805H42.1032L46.6346 8.9534C46.7331 8.70147 46.8316 8.19759 46.9301 7.77123H46.9892C46.9301 8.87588 46.8907 9.86426 46.871 10.465V19.9612H49.4914V4.99991H45.9056L42.0046 14.3991ZM51.9738 9.22472H54.5351V19.9612H51.9738V9.22472ZM53.2742 4.68984C52.8407 4.68984 52.4861 4.84488 52.1906 5.11619C51.895 5.38751 51.7374 5.73635 51.7374 6.16271C51.7374 6.56968 51.895 6.91852 52.1906 7.18984C52.4861 7.46115 52.8407 7.59681 53.2742 7.59681C53.7076 7.59681 54.082 7.44178 54.3578 7.18984C54.6533 6.91852 54.8109 6.56968 54.8109 6.16271C54.8109 5.75573 54.6533 5.40689 54.3578 5.11619C54.1017 4.84488 53.7273 4.68984 53.2742 4.68984ZM63.6177 9.12782C63.1449 9.03092 62.6523 8.97278 62.1795 8.97278C61.0171 8.97278 59.9531 9.22472 59.0666 9.7286C58.18 10.2325 57.4707 10.9301 57.0176 11.8022C56.5447 12.6937 56.3083 13.7208 56.3083 14.903C56.3083 15.9301 56.5447 16.841 56.9979 17.6743C57.451 18.4883 58.0815 19.1472 58.9286 19.5929C59.7364 20.0387 60.6821 20.2712 61.746 20.2712C62.9676 20.2712 64.0118 20.0193 64.8392 19.5542L64.8589 19.5348V17.2092L64.7604 17.2867C64.3861 17.5581 63.9527 17.7906 63.5192 17.9263C63.0661 18.0813 62.6523 18.1588 62.2977 18.1588C61.2732 18.1588 60.4654 17.8681 59.894 17.2286C59.303 16.6084 59.0075 15.7557 59.0075 14.6898C59.0075 13.5852 59.303 12.7131 59.9137 12.0736C60.5245 11.434 61.3323 11.1046 62.3174 11.1046C63.1449 11.1046 63.9921 11.3759 64.7604 11.9185L64.8589 11.996V9.5348L64.8392 9.51542C64.5043 9.37976 64.13 9.22472 63.6177 9.12782ZM72.0699 9.0503C71.4394 9.0503 70.8484 9.2441 70.3361 9.65108C69.9027 9.99991 69.6071 10.5038 69.351 11.1046H69.3313V9.22472H66.77V19.9612H69.3313V14.4767C69.3313 13.5464 69.5283 12.7712 69.9618 12.2092C70.3952 11.6278 70.9469 11.3371 71.6167 11.3371C71.8532 11.3371 72.0896 11.3953 72.3851 11.434C72.6609 11.5115 72.858 11.5891 72.9959 11.686L73.0944 11.7635V9.2441L73.0353 9.22472C72.858 9.10844 72.5033 9.0503 72.0699 9.0503ZM79.0444 8.99216C77.2515 8.99216 75.8133 9.51542 74.8085 10.5426C73.7839 11.5697 73.2914 12.9844 73.2914 14.7674C73.2914 16.434 73.8036 17.7906 74.7887 18.779C75.7738 19.748 77.1136 20.2519 78.7882 20.2519C80.5417 20.2519 81.9406 19.7286 82.9454 18.6821C83.9699 17.6356 84.4624 16.2402 84.4624 14.5154C84.4624 12.81 83.9896 11.4534 83.0242 10.465C82.0982 9.47666 80.7388 8.99216 79.0444 8.99216ZM81.0934 17.248C80.6205 17.8488 79.8719 18.1395 78.9459 18.1395C78.0199 18.1395 77.2712 17.8488 76.7392 17.2092C76.2073 16.6084 75.9512 15.7363 75.9512 14.6317C75.9512 13.4883 76.227 12.6162 76.7392 11.996C77.2712 11.3759 78.0002 11.0658 78.9262 11.0658C79.8325 11.0658 80.5417 11.3565 81.054 11.9573C81.5662 12.5581 81.8421 13.4301 81.8421 14.5736C81.8027 15.7363 81.5859 16.6472 81.0934 17.248ZM90.176 13.6821C89.3682 13.3526 88.856 13.1007 88.6195 12.8875C88.4225 12.6937 88.324 12.4224 88.324 12.0736C88.324 11.7829 88.4422 11.4922 88.7378 11.2984C89.0333 11.1046 89.3682 11.0077 89.8608 11.0077C90.2942 11.0077 90.7474 11.0852 91.1808 11.2015C91.6142 11.3177 92.0083 11.4922 92.3235 11.7247L92.422 11.8022V9.4379L92.3629 9.41852C92.0674 9.30224 91.6733 9.18596 91.2005 9.08906C90.7277 9.01154 90.2942 8.97278 89.9396 8.97278C88.7181 8.97278 87.7133 9.26348 86.9252 9.90302C86.1371 10.5038 85.7628 11.3177 85.7628 12.2674C85.7628 12.7712 85.8416 13.217 86.0189 13.5852C86.1962 13.9534 86.4523 14.3022 86.807 14.5929C87.1616 14.8643 87.6738 15.1743 88.3831 15.465C88.9742 15.717 89.4273 15.9108 89.7031 16.0658C89.979 16.2208 90.1563 16.3953 90.2942 16.5309C90.3927 16.686 90.4518 16.8798 90.4518 17.1317C90.4518 17.8488 89.9002 18.1976 88.7772 18.1976C88.3437 18.1976 87.8906 18.1201 87.3586 17.9457C86.8267 17.7712 86.3341 17.5193 85.9204 17.2286L85.8219 17.1511V19.6123L85.881 19.6317C86.2553 19.8061 86.7084 19.9224 87.2601 20.0581C87.8118 20.155 88.3043 20.2325 88.7378 20.2325C90.0578 20.2325 91.1414 19.9418 91.9098 19.3022C92.6979 18.6821 93.1116 17.8875 93.1116 16.8604C93.1116 16.1433 92.9146 15.5038 92.4811 15.0193C91.9098 14.5542 91.2005 14.0697 90.176 13.6821ZM99.8694 8.99216C98.0765 8.99216 96.6382 9.51542 95.6334 10.5426C94.6286 11.5697 94.1164 12.9844 94.1164 14.7674C94.1164 16.434 94.6286 17.7906 95.6137 18.779C96.5988 19.748 97.9386 20.2519 99.6133 20.2519C101.367 20.2519 102.766 19.7286 103.77 18.6821C104.795 17.6356 105.287 16.2402 105.287 14.5154C105.287 12.81 104.815 11.4534 103.849 10.465C102.923 9.47666 101.564 8.99216 99.8694 8.99216ZM101.899 17.248C101.426 17.8488 100.677 18.1395 99.7512 18.1395C98.8055 18.1395 98.0765 17.8488 97.5445 17.2092C97.0126 16.6084 96.7565 15.7363 96.7565 14.6317C96.7565 13.4883 97.0323 12.6162 97.5445 11.996C98.0765 11.3759 98.8055 11.0658 99.7315 11.0658C100.618 11.0658 101.347 11.3565 101.859 11.9573C102.372 12.5581 102.647 13.4301 102.647 14.5736C102.647 15.7363 102.391 16.6472 101.899 17.248ZM118.98 11.2984V9.22472H116.399V6.04643L116.321 6.06581L113.877 6.78286L113.818 6.80224V9.22472H109.957V7.86813C109.957 7.24798 110.114 6.76348 110.39 6.4534C110.666 6.14333 111.08 5.98829 111.592 5.98829C111.947 5.98829 112.321 6.06581 112.735 6.24023L112.833 6.29836V4.10844L112.774 4.08906C112.42 3.97278 111.947 3.89526 111.336 3.89526C110.568 3.89526 109.898 4.06968 109.287 4.36038C108.676 4.68984 108.223 5.13557 107.888 5.73635C107.553 6.31774 107.376 6.97666 107.376 7.73247V9.22472H105.583V11.279H107.376V19.9612H109.957V11.2984H113.818V16.8216C113.818 19.0891 114.902 20.2325 117.069 20.2325C117.424 20.2325 117.798 20.1743 118.153 20.1162C118.527 20.0387 118.803 19.9418 118.961 19.8643L118.98 19.8449V17.7712L118.882 17.8488C118.724 17.9457 118.586 18.0232 118.35 18.0813C118.153 18.1395 117.975 18.1588 117.838 18.1588C117.325 18.1588 116.971 18.0426 116.715 17.7519C116.478 17.4805 116.36 17.0348 116.36 16.3759V11.2984H118.98Z" fill="white" fill-opacity="0.6"/>
<path id="Vector_2" d="M0 0H12.0773V11.8798H0V0Z" fill="white" fill-opacity="0.6"/>
<path id="Vector_3" d="M13.3382 0H25.4156V11.8798H13.3382V0Z" fill="white" fill-opacity="0.6"/>
<path id="Vector_4" d="M0 13.1201H12.0773V25H0V13.1201Z" fill="white" fill-opacity="0.6"/>
<path id="Vector_5" d="M13.3382 13.1201H25.4156V25H13.3382V13.1201Z" fill="white" fill-opacity="0.6"/>
</g>
<defs>
<clipPath id="clip0_119_184">
<rect width="119" height="25" fill="white"/>
</clipPath>
</defs>
</svg>
