<svg width="119" height="39" viewBox="0 0 119 39" fill="none" xmlns="http://www.w3.org/2000/svg">
<g clip-path="url(#clip0_30_26)">
<mask id="mask0_30_26" style="mask-type:luminance" maskUnits="userSpaceOnUse" x="0" y="0" width="119" height="39">
<path d="M119 0H0V39H119V0Z" fill="white"/>
</mask>
<g mask="url(#mask0_30_26)">
<path d="M115.293 23.8346L118.595 26.0327C117.523 27.609 114.96 30.3133 110.53 30.3133C105.028 30.3133 100.931 26.0617 100.931 20.6531C100.931 14.8975 105.071 10.9929 110.067 10.9929C115.091 10.9929 117.552 14.9843 118.348 17.139L118.783 18.2381L105.839 23.5888C106.823 25.5266 108.358 26.51 110.53 26.51C112.702 26.51 114.208 25.4398 115.293 23.8346ZM105.144 20.3494L113.788 16.763C113.31 15.5627 111.891 14.7095 110.197 14.7095C108.04 14.7095 105.042 16.6184 105.144 20.3494Z" fill="white" fill-opacity="0.6"/>
<path d="M94.6899 1.14478H98.8598V29.4312H94.6899V1.14478Z" fill="white" fill-opacity="0.6"/>
<path d="M88.1166 11.7447H92.1417V28.9248C92.1417 36.0543 87.9284 38.9899 82.9477 38.9899C78.2566 38.9899 75.4333 35.8373 74.3763 33.2777L78.0684 31.7448C78.7344 33.3211 80.3415 35.1866 82.9477 35.1866C86.1475 35.1866 88.1166 33.2054 88.1166 29.5033V28.115H87.9719C87.0163 29.2719 85.1919 30.3131 82.8753 30.3131C78.0394 30.3131 73.6089 26.1049 73.6089 20.6818C73.6089 15.2299 78.0394 10.9783 82.8753 10.9783C85.1775 10.9783 87.0163 12.005 87.9719 13.133H88.1166V11.7447ZM88.4062 20.6818C88.4062 17.269 86.133 14.7816 83.2373 14.7816C80.3126 14.7816 77.8512 17.269 77.8512 20.6818C77.8512 24.0513 80.3126 26.4953 83.2373 26.4953C86.133 26.5098 88.4062 24.0513 88.4062 20.6818Z" fill="white" fill-opacity="0.6"/>
<path d="M50.7181 20.6097C50.7181 26.1773 46.3745 30.2699 41.0463 30.2699C35.7182 30.2699 31.3745 26.1629 31.3745 20.6097C31.3745 15.0132 35.7182 10.9351 41.0463 10.9351C46.3745 10.9351 50.7181 15.0132 50.7181 20.6097ZM46.4903 20.6097C46.4903 17.139 43.971 14.7529 41.0463 14.7529C38.1216 14.7529 35.6023 17.139 35.6023 20.6097C35.6023 24.0515 38.1216 26.4666 41.0463 26.4666C43.971 26.4666 46.4903 24.0515 46.4903 20.6097Z" fill="white" fill-opacity="0.6"/>
<path d="M71.8426 20.6531C71.8426 26.2207 67.499 30.3133 62.1708 30.3133C56.8426 30.3133 52.499 26.2207 52.499 20.6531C52.499 15.0566 56.8426 10.9929 62.1708 10.9929C67.499 10.9929 71.8426 15.0421 71.8426 20.6531ZM67.6004 20.6531C67.6004 17.1824 65.081 14.7963 62.1563 14.7963C59.2316 14.7963 56.7123 17.1824 56.7123 20.6531C56.7123 24.0949 59.2316 26.51 62.1563 26.51C65.0955 26.51 67.6004 24.0805 67.6004 20.6531Z" fill="white" fill-opacity="0.6"/>
<path d="M15.4769 26.076C9.41029 26.076 4.66126 21.1881 4.66126 15.1288C4.66126 9.06949 9.41029 4.18155 15.4769 4.18155C18.7491 4.18155 21.1381 5.46861 22.9045 7.1172L25.8147 4.21047C23.3533 1.85327 20.0666 0.0600586 15.4769 0.0600586C7.16608 0.0600586 0.172852 6.82798 0.172852 15.1288C0.172852 23.4296 7.16608 30.1975 15.4769 30.1975C19.9653 30.1975 23.3533 28.7225 26.0029 25.9748C28.7249 23.2561 29.5647 19.4383 29.5647 16.3436C29.5647 15.3746 29.4489 14.3768 29.3186 13.6393H15.4769V17.6595H25.3369C25.0473 20.1758 24.251 21.8967 23.0782 23.0681C21.6593 24.4998 19.4151 26.076 15.4769 26.076Z" fill="white" fill-opacity="0.6"/>
</g>
</g>
<defs>
<clipPath id="clip0_30_26">
<rect width="119" height="39" fill="white"/>
</clipPath>
</defs>
</svg>
