<svg width="148" height="32" viewBox="0 0 148 32" fill="none" xmlns="http://www.w3.org/2000/svg">
<path d="M18.9221 5.77922V3C18.9221 1.89543 18.0266 1 16.9221 1H3C1.89543 1 1 1.89543 1 3V16.9221C1 18.0266 1.89543 18.9221 3 18.9221H6.22727" stroke="white" stroke-width="2"/>
<rect x="7.07812" y="6.48053" width="15.9221" height="15.9221" rx="1" stroke="white" stroke-width="2"/>
<path d="M59.408 25.288C57.712 25.288 56.256 24.928 55.04 24.208C53.824 23.472 52.888 22.456 52.232 21.16C51.576 19.848 51.248 18.336 51.248 16.624C51.248 14.912 51.576 13.4 52.232 12.088C52.888 10.776 53.824 9.752 55.04 9.016C56.256 8.28 57.712 7.912 59.408 7.912C61.424 7.912 63.072 8.416 64.352 9.424C65.648 10.416 66.456 11.816 66.776 13.624H63.392C63.184 12.712 62.736 12 62.048 11.488C61.376 10.96 60.48 10.696 59.36 10.696C57.808 10.696 56.592 11.224 55.712 12.28C54.832 13.336 54.392 14.784 54.392 16.624C54.392 18.464 54.832 19.912 55.712 20.968C56.592 22.008 57.808 22.528 59.36 22.528C60.48 22.528 61.376 22.288 62.048 21.808C62.736 21.312 63.184 20.632 63.392 19.768H66.776C66.456 21.496 65.648 22.848 64.352 23.824C63.072 24.8 61.424 25.288 59.408 25.288ZM75.1353 25.288C73.9833 25.288 72.9433 25.024 72.0153 24.496C71.1033 23.968 70.3753 23.24 69.8313 22.312C69.3033 21.368 69.0393 20.28 69.0393 19.048C69.0393 17.816 69.3113 16.736 69.8553 15.808C70.3993 14.864 71.1273 14.128 72.0393 13.6C72.9673 13.072 74.0073 12.808 75.1593 12.808C76.2953 12.808 77.3193 13.072 78.2313 13.6C79.1593 14.128 79.8873 14.864 80.4153 15.808C80.9593 16.736 81.2313 17.816 81.2313 19.048C81.2313 20.28 80.9593 21.368 80.4153 22.312C79.8873 23.24 79.1593 23.968 78.2313 24.496C77.3033 25.024 76.2713 25.288 75.1353 25.288ZM75.1353 22.624C75.9353 22.624 76.6313 22.328 77.2233 21.736C77.8153 21.128 78.1113 20.232 78.1113 19.048C78.1113 17.864 77.8153 16.976 77.2233 16.384C76.6313 15.776 75.9433 15.472 75.1593 15.472C74.3433 15.472 73.6393 15.776 73.0473 16.384C72.4713 16.976 72.1833 17.864 72.1833 19.048C72.1833 20.232 72.4713 21.128 73.0473 21.736C73.6393 22.328 74.3353 22.624 75.1353 22.624ZM83.978 25V7.72H87.05V25H83.978ZM90.1889 25V7.72H93.2609V25H90.1889ZM102.112 25.288C100.96 25.288 99.9198 25.024 98.9918 24.496C98.0798 23.968 97.3518 23.24 96.8078 22.312C96.2798 21.368 96.0158 20.28 96.0158 19.048C96.0158 17.816 96.2878 16.736 96.8318 15.808C97.3758 14.864 98.1038 14.128 99.0158 13.6C99.9438 13.072 100.984 12.808 102.136 12.808C103.272 12.808 104.296 13.072 105.208 13.6C106.136 14.128 106.864 14.864 107.392 15.808C107.936 16.736 108.208 17.816 108.208 19.048C108.208 20.28 107.936 21.368 107.392 22.312C106.864 23.24 106.136 23.968 105.208 24.496C104.28 25.024 103.248 25.288 102.112 25.288ZM102.112 22.624C102.912 22.624 103.608 22.328 104.2 21.736C104.792 21.128 105.088 20.232 105.088 19.048C105.088 17.864 104.792 16.976 104.2 16.384C103.608 15.776 102.92 15.472 102.136 15.472C101.32 15.472 100.616 15.776 100.024 16.384C99.4478 16.976 99.1598 17.864 99.1598 19.048C99.1598 20.232 99.4478 21.128 100.024 21.736C100.616 22.328 101.312 22.624 102.112 22.624ZM115.875 25.288C114.819 25.288 113.891 25.12 113.091 24.784C112.291 24.432 111.651 23.952 111.171 23.344C110.691 22.736 110.403 22.032 110.307 21.232H113.403C113.499 21.696 113.755 22.096 114.171 22.432C114.603 22.752 115.155 22.912 115.827 22.912C116.499 22.912 116.987 22.776 117.291 22.504C117.611 22.232 117.771 21.92 117.771 21.568C117.771 21.056 117.547 20.712 117.099 20.536C116.651 20.344 116.027 20.16 115.227 19.984C114.715 19.872 114.195 19.736 113.667 19.576C113.139 19.416 112.651 19.216 112.203 18.976C111.771 18.72 111.419 18.4 111.147 18.016C110.875 17.616 110.739 17.128 110.739 16.552C110.739 15.496 111.155 14.608 111.987 13.888C112.835 13.168 114.019 12.808 115.539 12.808C116.947 12.808 118.067 13.136 118.899 13.792C119.747 14.448 120.251 15.352 120.411 16.504H117.507C117.331 15.624 116.667 15.184 115.515 15.184C114.939 15.184 114.491 15.296 114.171 15.52C113.867 15.744 113.715 16.024 113.715 16.36C113.715 16.712 113.947 16.992 114.411 17.2C114.875 17.408 115.491 17.6 116.259 17.776C117.091 17.968 117.851 18.184 118.539 18.424C119.243 18.648 119.803 18.992 120.219 19.456C120.635 19.904 120.843 20.552 120.843 21.4C120.859 22.136 120.667 22.8 120.267 23.392C119.867 23.984 119.291 24.448 118.539 24.784C117.787 25.12 116.899 25.288 115.875 25.288ZM127.668 25.288C126.644 25.288 125.804 25.128 125.148 24.808C124.492 24.472 124.004 24.032 123.684 23.488C123.364 22.944 123.204 22.344 123.204 21.688C123.204 20.584 123.636 19.688 124.5 19C125.364 18.312 126.66 17.968 128.388 17.968H131.412V17.68C131.412 16.864 131.18 16.264 130.716 15.88C130.252 15.496 129.676 15.304 128.988 15.304C128.364 15.304 127.82 15.456 127.356 15.76C126.892 16.048 126.604 16.48 126.492 17.056H123.492C123.572 16.192 123.86 15.44 124.356 14.8C124.868 14.16 125.524 13.672 126.324 13.336C127.124 12.984 128.02 12.808 129.012 12.808C130.708 12.808 132.044 13.232 133.02 14.08C133.996 14.928 134.484 16.128 134.484 17.68V25H131.868L131.58 23.08C131.228 23.72 130.732 24.248 130.092 24.664C129.468 25.08 128.66 25.288 127.668 25.288ZM128.364 22.888C129.244 22.888 129.924 22.6 130.404 22.024C130.9 21.448 131.212 20.736 131.34 19.888H128.724C127.908 19.888 127.324 20.04 126.972 20.344C126.62 20.632 126.444 20.992 126.444 21.424C126.444 21.888 126.62 22.248 126.972 22.504C127.324 22.76 127.788 22.888 128.364 22.888ZM137.415 25V7.72H140.487V25H137.415ZM144.946 25.168C144.386 25.168 143.922 24.992 143.554 24.64C143.202 24.288 143.026 23.864 143.026 23.368C143.026 22.856 143.202 22.424 143.554 22.072C143.922 21.72 144.386 21.544 144.946 21.544C145.506 21.544 145.962 21.72 146.314 22.072C146.682 22.424 146.866 22.856 146.866 23.368C146.866 23.864 146.682 24.288 146.314 24.64C145.962 24.992 145.506 25.168 144.946 25.168Z" fill="white"/>
</svg>
